#N canvas 523 -680 786 300 12;
#X obj 54 156 float;
#X obj 128 156 +;
#X floatatom 146 119 5 0 0 0 - - - 0;
#X msg 86 117 0;
#X obj 54 37 tgl 15 0 empty empty empty 17 7 0 10 #fcfcfc #000000 #000000
0 1;
#X obj 54 75 metro 1000;
#X floatatom 121 36 5 0 0 0 - - - 0;
#X obj 273 136 bng 15 250 50 0 empty empty empty 17 7 0 10 #fcfcfc
#000000 #000000;
#X obj 355 137 bng 15 250 50 0 empty empty empty 17 7 0 10 #fcfcfc
#000000 #000000;
#X obj 299 136 bng 15 250 50 0 empty empty empty 17 7 0 10 #fcfcfc
#000000 #000000;
#X obj 327 136 bng 15 250 50 0 empty empty empty 17 7 0 10 #fcfcfc
#000000 #000000;
#X obj 382 137 bng 15 250 50 0 empty empty empty 17 7 0 10 #fcfcfc
#000000 #000000;
#X obj 411 137 bng 15 250 50 0 empty empty empty 17 7 0 10 #fcfcfc
#000000 #000000;
#X obj 290 88 select 0 1 2 3 4 5;
#X obj 54 209 send cnt;
#X obj 290 37 receive cnt;
#X obj 448 135 send reset;
#X obj 85 11 receive reset;
#X connect 0 0 1 0;
#X connect 0 0 14 0;
#X connect 1 0 0 1;
#X connect 2 0 1 1;
#X connect 3 0 0 1;
#X connect 4 0 5 0;
#X connect 5 0 0 0;
#X connect 6 0 5 1;
#X connect 13 0 7 0;
#X connect 13 1 9 0;
#X connect 13 2 10 0;
#X connect 13 3 8 0;
#X connect 13 4 11 0;
#X connect 13 5 12 0;
#X connect 13 6 16 0;
#X connect 15 0 13 0;
#X connect 17 0 3 0;
