#N canvas 559 -601 450 300 12;
#X obj 54 144 random 6;
#X obj 54 37 tgl 15 0 empty empty empty 17 7 0 10 #fcfcfc #000000 #000000
0 1;
#X obj 54 75 metro 1000;
#X floatatom 121 31 5 0 0 0 - - - 0;
#X obj 54 209 send cnt;
#X obj 171 168 bng 15 250 50 0 empty empty empty 17 7 0 10 #fcfcfc
#000000 #000000;
#X obj 253 169 bng 15 250 50 0 empty empty empty 17 7 0 10 #fcfcfc
#000000 #000000;
#X obj 197 168 bng 15 250 50 0 empty empty empty 17 7 0 10 #fcfcfc
#000000 #000000;
#X obj 225 168 bng 15 250 50 0 empty empty empty 17 7 0 10 #fcfcfc
#000000 #000000;
#X obj 280 169 bng 15 250 50 0 empty empty empty 17 7 0 10 #fcfcfc
#000000 #000000;
#X obj 309 169 bng 15 250 50 0 empty empty empty 17 7 0 10 #fcfcfc
#000000 #000000;
#X obj 188 120 select 0 1 2 3 4 5;
#X obj 188 69 receive cnt;
#X obj 346 167 send reset;
#X connect 0 0 4 0;
#X connect 1 0 2 0;
#X connect 2 0 0 0;
#X connect 3 0 2 1;
#X connect 11 0 5 0;
#X connect 11 1 7 0;
#X connect 11 2 8 0;
#X connect 11 3 6 0;
#X connect 11 4 9 0;
#X connect 11 5 10 0;
#X connect 11 6 13 0;
#X connect 12 0 11 0;
