#N canvas 574 340 450 300 12;
#X floatatom 63 16 5 0 0 0 - - - 0;
#X floatatom 132 18 5 0 0 0 - - - 0;
#X floatatom 45 168 5 0 0 0 - - - 0;
#X obj 43 117 +;
#X obj 204 60 trigger bang float;
#X obj 152 48 t b f;
#X obj 164 117 *;
#X obj 109 117 -;
#X obj 243 120 /;
#X floatatom 110 168 5 0 0 0 - - - 0;
#X floatatom 180 169 5 0 0 0 - - - 0;
#X floatatom 245 168 5 0 0 0 - - - 0;
#X connect 0 0 3 0;
#X connect 0 0 7 0;
#X connect 0 0 6 0;
#X connect 0 0 8 0;
#X connect 1 0 5 0;
#X connect 3 0 2 0;
#X connect 5 0 3 0;
#X connect 5 0 7 0;
#X connect 5 0 6 0;
#X connect 5 0 8 0;
#X connect 5 1 3 1;
#X connect 5 1 7 1;
#X connect 5 1 6 1;
#X connect 5 1 8 1;
#X connect 6 0 10 0;
#X connect 7 0 9 0;
#X connect 8 0 11 0;
