#N canvas 652 149 450 300 12;
#X obj 45 33 bng 15 250 50 0 empty empty empty 17 7 0 10 #fcfcfc #000000
#000000;
#X obj 215 55 hsl 128 15 0 127 0 0 empty empty empty -2 -8 0 10 #fcfcfc
#000000 #000000 0 1;
#X obj 45 86 print;
#X obj 47 181 tgl 15 0 empty empty empty 17 7 0 10 #fcfcfc #000000
#000000 0 1;
#X floatatom 47 224 5 0 0 0 - - - 0;
#X floatatom 212 105 5 0 0 0 - - - 0;
#X obj 183 183 hradio 15 1 0 6 empty empty empty 0 -8 0 10 #ffffff
#000000 #000000 0;
#X floatatom 183 226 5 0 0 0 - - - 0;
#X connect 0 0 2 0;
#X connect 1 0 5 0;
#X connect 3 0 4 0;
#X connect 6 0 7 0;
