#N canvas 0 25 1440 847 12;
#X declare -lib Gem;
#X obj 105 110 gemwin;
#X msg 104 48 create;
#X msg 170 47 destroy;
#X obj 64 69 tgl 15 0 empty empty empty 17 7 0 10 #fcfcfc #000000 #000000
0 1;
#X obj 320 16 declare -lib Gem;
#X obj 301 154 gemhead;
#X msg 181 171 draw fill;
#X msg 181 205 draw line;
#X msg 181 241 draw point;
#X obj 444 531 square;
#X floatatom 483 489 5 0 0 0 - - - 0;
#X floatatom 332 402 5 0 0 0 - - - 0;
#X obj 302 444 rectangle;
#X floatatom 382 402 5 0 0 0 - - - 0;
#X floatatom 499 407 5 0 0 0 - - - 0;
#X obj 446 446 triangle;
#X floatatom 359 484 5 0 0 0 - - - 0;
#X obj 320 531 circle;
#X obj 287 778 polygon 5;
#X msg 299 622 0 2 0;
#X msg 311 652 2 1 0;
#X msg 323 680 1 -1 0;
#X msg 335 710 -1 -1 0;
#X msg 347 737 -2 1 0;
#X msg 471 621 2 1 0;
#X obj 425 746 curve 2;
#X msg 448 589 -2 1 0;
#X msg 316 195 -3 0 0;
#X msg 323 228 0 3 0;
#X msg 364 314 3 0 0;
#X msg 180 134 draw linestrip;
#X obj 530 799 curve 3;
#X msg 545 641 -3 0 0;
#X msg 560 675 0 3 0;
#X msg 576 711 3 0 0;
#X obj 301 353 curve 5;
#X msg 335 255 -2 -1 0;
#X msg 346 283 2 -2 0;
#X connect 1 0 0 0;
#X connect 2 0 0 0;
#X connect 3 0 0 0;
#X connect 5 0 35 0;
#X connect 6 0 35 0;
#X connect 7 0 35 0;
#X connect 8 0 35 0;
#X connect 10 0 9 1;
#X connect 11 0 12 1;
#X connect 13 0 12 2;
#X connect 14 0 15 1;
#X connect 16 0 17 1;
#X connect 19 0 18 1;
#X connect 20 0 18 2;
#X connect 21 0 18 3;
#X connect 22 0 18 4;
#X connect 23 0 18 5;
#X connect 24 0 25 2;
#X connect 26 0 25 1;
#X connect 27 0 35 1;
#X connect 28 0 35 2;
#X connect 29 0 35 5;
#X connect 30 0 35 0;
#X connect 32 0 31 1;
#X connect 33 0 31 2;
#X connect 34 0 31 3;
#X connect 36 0 35 3;
#X connect 37 0 35 4;
