#N canvas 672 -910 666 827 12;
#X obj 64 96 gemwin;
#X msg 64 43 create;
#X msg 125 43 destroy;
#X obj 29 53 tgl 15 0 empty empty empty 17 7 0 10 #fcfcfc #000000 #000000
0 1;
#X obj 203 94 gemhead;
#X floatatom 231 239 5 0 0 0 - - - 0;
#X floatatom 273 239 5 0 0 0 - - - 0;
#X msg 114 145 draw line;
#X obj 485 180 translateXYZ;
#X floatatom 512 137 5 0 0 0 - - - 0;
#X floatatom 554 137 5 0 0 0 - - - 0;
#X floatatom 594 137 5 0 0 0 - - - 0;
#X floatatom 524 36 5 0 0 0 - - - 0;
#X floatatom 566 36 5 0 0 0 - - - 0;
#X floatatom 606 36 5 0 0 0 - - - 0;
#X obj 496 82 rotateXYZ;
#X floatatom 506 213 5 0 0 0 - - - 0;
#X floatatom 550 214 5 0 0 0 - - - 0;
#X floatatom 590 214 5 0 0 0 - - - 0;
#X obj 481 257 scaleXYZ;
#X floatatom 509 358 5 0 0 0 - - - 0;
#X floatatom 551 358 5 0 0 0 - - - 0;
#X floatatom 591 358 5 0 0 0 - - - 0;
#X msg 393 371 draw line;
#X obj 482 401 translateXYZ;
#X obj 482 446 sphere 1 36;
#X obj 482 320 ortho;
#X obj 202 406 gemhead;
#X floatatom 230 568 5 0 0 0 - - - 0;
#X floatatom 272 568 5 0 0 0 - - - 0;
#X msg 113 457 draw line;
#X obj 203 611 translateXYZ;
#X obj 203 528 rotateXYZ;
#X floatatom 227 479 5 0 0 0 - - - 0;
#X floatatom 281 480 5 0 0 0 - - - 0;
#X floatatom 228 152 5 0 0 0 - - - 0;
#X floatatom 269 154 5 0 0 0 - - - 0;
#X obj 204 189 translateXYZ;
#X obj 204 282 rotateXYZ;
#X obj 203 656 cube 0.75;
#X obj 204 327 cube 0.75;
#X connect 1 0 0 0;
#X connect 2 0 0 0;
#X connect 3 0 0 0;
#X connect 4 0 37 0;
#X connect 5 0 38 1;
#X connect 6 0 38 2;
#X connect 7 0 40 0;
#X connect 9 0 8 1;
#X connect 10 0 8 2;
#X connect 11 0 8 3;
#X connect 12 0 15 1;
#X connect 13 0 15 2;
#X connect 14 0 15 3;
#X connect 16 0 19 1;
#X connect 17 0 19 2;
#X connect 18 0 19 3;
#X connect 20 0 24 1;
#X connect 21 0 24 2;
#X connect 22 0 24 3;
#X connect 23 0 25 0;
#X connect 24 0 25 0;
#X connect 26 0 24 0;
#X connect 27 0 32 0;
#X connect 28 0 31 1;
#X connect 29 0 31 2;
#X connect 30 0 39 0;
#X connect 31 0 39 0;
#X connect 32 0 31 0;
#X connect 33 0 32 1;
#X connect 34 0 32 2;
#X connect 35 0 37 1;
#X connect 36 0 37 2;
#X connect 37 0 38 0;
#X connect 38 0 40 0;
