#N canvas 195 193 729 659 12;
#X declare -lib Gem;
#X obj 23 48 tgl 15 0 empty empty empty 17 7 0 10 #fcfcfc #000000 #000000
0 1;
#X obj 309 10 declare -lib Gem;
#X obj 64 127 gemwin;
#X msg 54 47 create;
#X obj 456 6 tgl 15 0 empty empty empty 17 7 0 10 #fcfcfc #000000 #000000
0 1;
#X obj 456 125 counter;
#X msg 490 88 0;
#X floatatom 457 175 5 0 0 0 - - - 0;
#X msg 525 88 0;
#X msg 560 88 359;
#X obj 260 138 gemhead;
#X obj 260 187 rotateXYZ;
#X obj 260 256 translateXYZ;
#X obj 234 542 sphere 1 36;
#X msg 131 513 draw line;
#X obj 456 54 metro 20;
#X msg 115 46 destroy;
#X floatatom 287 219 5 0 0 0 - - - 0;
#X msg 339 511 draw line;
#X obj 415 548 sphere 0.3 36;
#X obj 260 318 trigger a a;
#X obj 415 492 translateXYZ;
#X floatatom 441 462 5 0 0 0 - - - 0;
#X obj 335 346 separator;
#X obj 415 392 rotateXYZ;
#X floatatom 455 339 5 0 0 0 - - - 0;
#X obj 458 228 * -2;
#X obj 233 348 separator;
#X obj 234 480 color 1 1 0;
#X msg 129 477 draw fill;
#X msg 338 479 draw fill;
#X obj 415 438 color 1 0 1;
#X obj 60 258 gemhead;
#X obj 60 336 world_light;
#X msg 138 97 lighting \$1;
#X obj 138 75 tgl 15 0 empty empty empty 17 7 0 10 #fcfcfc #000000
#000000 0 1;
#X obj 560 41 loadbang;
#X connect 0 0 2 0;
#X connect 3 0 2 0;
#X connect 4 0 15 0;
#X connect 5 0 7 0;
#X connect 6 0 5 1;
#X connect 7 0 26 0;
#X connect 7 0 11 2;
#X connect 8 0 5 2;
#X connect 9 0 5 3;
#X connect 10 0 11 0;
#X connect 11 0 12 0;
#X connect 12 0 20 0;
#X connect 14 0 13 0;
#X connect 15 0 5 0;
#X connect 16 0 2 0;
#X connect 17 0 12 1;
#X connect 18 0 19 0;
#X connect 20 0 27 0;
#X connect 20 1 23 0;
#X connect 21 0 19 0;
#X connect 22 0 21 1;
#X connect 23 0 24 0;
#X connect 24 0 31 0;
#X connect 25 0 24 2;
#X connect 26 0 25 0;
#X connect 27 0 28 0;
#X connect 28 0 13 0;
#X connect 29 0 13 0;
#X connect 30 0 19 0;
#X connect 31 0 21 0;
#X connect 32 0 33 0;
#X connect 34 0 2 0;
#X connect 35 0 34 0;
#X connect 36 0 6 0;
#X connect 36 0 8 0;
#X connect 36 0 9 0;
