#N canvas 54 -652 747 300 12;
#X obj 70 117 gemwin;
#X msg 69 18 create;
#X msg 129 17 destroy;
#X obj 29 43 tgl 15 0 empty empty empty 17 7 0 10 #fcfcfc #000000 #000000
0 1;
#X obj 256 30 gemhead;
#X obj 256 215 sphere;
#X floatatom 275 147 5 0 0 0 - - - 0;
#X floatatom 295 173 5 0 0 0 - - - 0;
#X obj 518 82 color;
#X msg 574 43 1 1 0;
#X msg 631 43 0 0.5 1;
#X obj 256 106 colorRGB;
#X floatatom 269 61 5 0 0 0 - - - 0;
#X floatatom 314 61 5 0 0 0 - - - 0;
#X floatatom 359 61 5 0 0 0 - - - 0;
#X obj 53 170 gemhead;
#X obj 53 229 world_light;
#X msg 127 172 1 1 0;
#X msg 136 73 lighting \$1;
#X obj 136 46 tgl 15 0 empty empty empty 17 7 0 10 #fcfcfc #000000
#000000 0 1;
#X obj 521 253 color;
#X obj 521 217 pack f f f;
#X floatatom 521 128 5 0 0 0 - - - 0;
#X floatatom 562 128 5 0 0 0 - - - 0;
#X floatatom 653 130 5 0 0 0 - - - 0;
#X obj 562 178 trigger b f;
#X obj 654 178 trigger b f;
#X connect 1 0 0 0;
#X connect 2 0 0 0;
#X connect 3 0 0 0;
#X connect 4 0 11 0;
#X connect 6 0 5 1;
#X connect 7 0 5 2;
#X connect 9 0 8 1;
#X connect 10 0 8 1;
#X connect 11 0 5 0;
#X connect 12 0 11 1;
#X connect 13 0 11 2;
#X connect 14 0 11 3;
#X connect 15 0 16 0;
#X connect 17 0 16 1;
#X connect 18 0 0 0;
#X connect 19 0 18 0;
#X connect 21 0 20 0;
#X connect 22 0 21 0;
#X connect 23 0 25 0;
#X connect 24 0 26 0;
#X connect 25 0 21 0;
#X connect 25 1 21 1;
#X connect 26 0 21 0;
#X connect 26 1 21 2;
