#N canvas 121 146 690 300 12;
#X obj 133 104 netreceive 3000;
#X floatatom 235 140 5 0 0 0 - - - 0;
#X floatatom 133 181 5 0 0 0 - - - 0;
#X obj 133 146 unpack f f;
#X floatatom 200 180 5 0 0 0 - - - 0;
#X connect 0 0 3 0;
#X connect 0 1 1 0;
#X connect 3 0 2 0;
#X connect 3 1 4 0;
