#N canvas 266 291 609 300 12;
#X obj 397 111 netreceive 3000;
#X obj 84 130 netsend;
#X msg 133 57 connect localhost 3000;
#X msg 156 98 disconnect;
#X floatatom 84 154 5 0 0 0 - - - 0;
#X floatatom 499 147 5 0 0 0 - - - 0;
#X msg 26 99 send \$1;
#X floatatom 26 69 5 0 0 0 - - - 0;
#X floatatom 397 135 5 0 0 0 - - - 0;
#X connect 0 0 8 0;
#X connect 0 1 5 0;
#X connect 1 0 4 0;
#X connect 2 0 1 0;
#X connect 3 0 1 0;
#X connect 6 0 1 0;
#X connect 7 0 6 0;
