#N canvas 63 88 646 425 12;
#X obj 443 110 netreceive 3000;
#X obj 142 227 netsend;
#X msg 207 162 connect localhost 3000;
#X msg 214 195 disconnect;
#X floatatom 142 251 5 0 0 0 - - - 0;
#X floatatom 545 146 5 0 0 0 - - - 0;
#X floatatom 443 187 5 0 0 0 - - - 0;
#X msg 84 196 send \$1 \$2;
#X obj 84 152 pack f f;
#X floatatom 84 100 5 0 0 0 - - - 0;
#X floatatom 146 68 5 0 0 0 - - - 0;
#X obj 443 152 unpack f f;
#X floatatom 510 186 5 0 0 0 - - - 0;
#X obj 146 107 trigger b f;
#X connect 0 0 11 0;
#X connect 0 1 5 0;
#X connect 1 0 4 0;
#X connect 2 0 1 0;
#X connect 3 0 1 0;
#X connect 7 0 1 0;
#X connect 8 0 7 0;
#X connect 9 0 8 0;
#X connect 10 0 13 0;
#X connect 11 0 6 0;
#X connect 11 1 12 0;
#X connect 13 0 8 0;
#X connect 13 1 8 1;
