#N canvas 220 84 758 421 12;
#X obj 405 135 oscparse;
#X obj 83 164 oscformat hao value;
#X msg 83 116 1 2 3 4 5 6;
#X obj 83 252 netsend -u -b;
#X obj 405 96 netreceive -u -b;
#X msg 405 44 listen 3000;
#X msg 518 44 listen 0;
#X msg 124 194 connect localhost 3000;
#X msg 144 224 disconnet;
#X obj 405 174 list trim;
#X obj 405 216 route hao;
#X obj 405 257 route value;
#X floatatom 405 333 5 0 0 0 - - - 0;
#X floatatom 446 333 5 0 0 0 - - - 0;
#X floatatom 487 334 5 0 0 0 - - - 0;
#X floatatom 531 334 5 0 0 0 - - - 0;
#X floatatom 574 335 5 0 0 0 - - - 0;
#X floatatom 618 335 5 0 0 0 - - - 0;
#X obj 405 294 unpack f f f f f f f;
#X msg 190 124 7 8 9 10 11 12;
#X obj 83 300 tgl 15 0 empty empty empty 17 7 0 10 #fcfcfc #000000
#000000 0 1;
#X connect 0 0 9 0;
#X connect 1 0 3 0;
#X connect 2 0 1 0;
#X connect 3 0 20 0;
#X connect 4 0 0 0;
#X connect 5 0 4 0;
#X connect 6 0 4 0;
#X connect 7 0 3 0;
#X connect 8 0 3 0;
#X connect 9 0 10 0;
#X connect 10 0 11 0;
#X connect 11 0 18 0;
#X connect 18 0 12 0;
#X connect 18 1 13 0;
#X connect 18 2 14 0;
#X connect 18 3 15 0;
#X connect 18 4 16 0;
#X connect 18 5 17 0;
#X connect 19 0 1 0;
