#N canvas 550 267 623 554 12;
#X declare -lib Gem;
#X floatatom 251 234 5 0 0 0 - - - 0;
#X obj 251 281 trigger f f b;
#X obj 339 341 float;
#X obj 295 381 -;
#X floatatom 295 424 5 0 0 0 - - - 0;
#X floatatom 416 232 5 0 0 0 - - - 0;
#X obj 416 279 trigger f f b;
#X obj 504 339 float;
#X obj 460 379 -;
#X floatatom 460 422 5 0 0 0 - - - 0;
#X text 298 232 x;
#X text 464 231 y;
#X obj 316 168 gemmouse 1 1;
#X obj 25 14 declare -lib Gem;
#X obj 78 106 gemwin;
#X msg 64 67 create;
#X msg 127 66 destroy;
#X obj 41 80 tgl 15 0 empty empty empty 17 7 0 10 #fcfcfc #000000 #000000
0 1;
#X obj 195 37 loadbang;
#X msg 195 65 dimen 800 600;
#X connect 0 0 1 0;
#X connect 1 0 2 1;
#X connect 1 1 3 0;
#X connect 1 2 2 0;
#X connect 2 0 3 1;
#X connect 3 0 4 0;
#X connect 5 0 6 0;
#X connect 6 0 7 1;
#X connect 6 1 8 0;
#X connect 6 2 7 0;
#X connect 7 0 8 1;
#X connect 8 0 9 0;
#X connect 12 0 0 0;
#X connect 12 1 5 0;
#X connect 15 0 14 0;
#X connect 16 0 14 0;
#X connect 17 0 14 0;
#X connect 18 0 19 0;
#X connect 19 0 14 0;
