#N canvas 908 37 703 664 12;
#X declare -lib Gem;
#X obj 25 14 declare -lib Gem;
#X obj 78 106 gemwin;
#X msg 64 67 create;
#X msg 127 66 destroy;
#X obj 41 80 tgl 15 0 empty empty empty 17 7 0 10 #fcfcfc #000000 #000000
0 1;
#X obj 195 37 loadbang;
#X msg 195 65 dimen 800 600;
#X obj 393 119 gemhead;
#X obj 393 159 part_head;
#X obj 393 404 part_draw;
#X msg 288 365 draw linne;
#X msg 287 328 draw point;
#X obj 393 334 part_killold 20;
#X obj 393 251 part_source 10 point;
#X obj 530 213 r pt;
#X obj 393 293 part_velocity sphere 0 0.3 0 0.2;
#X obj 393 205 part_color;
#X msg 486 170 1 1 0;
#X msg 541 171 1 0 1;
#X obj 525 128 loadbang;
#X obj 78 280 gemmouse 1 1;
#X obj 78 322 * 10.66;
#X obj 78 358 - 5.33;
#X obj 143 321 * -8;
#X obj 143 357 + 4;
#X obj 78 431 pack f f f;
#X obj 186 357 loadbang;
#X msg 186 383 0;
#X obj 78 471 s pt;
#X floatatom 35 399 5 0 0 0 - - - 0;
#X floatatom 192 439 5 0 0 0 - - - 0;
#X floatatom 29 308 5 0 0 0 - - - 0;
#X floatatom 212 302 5 0 0 0 - - - 0;
#X connect 2 0 1 0;
#X connect 3 0 1 0;
#X connect 4 0 1 0;
#X connect 5 0 6 0;
#X connect 6 0 1 0;
#X connect 7 0 8 0;
#X connect 8 0 16 0;
#X connect 10 0 9 0;
#X connect 11 0 9 0;
#X connect 12 0 9 0;
#X connect 13 0 15 0;
#X connect 14 0 13 3;
#X connect 15 0 12 0;
#X connect 16 0 13 0;
#X connect 17 0 16 1;
#X connect 18 0 16 2;
#X connect 19 0 17 0;
#X connect 19 0 18 0;
#X connect 20 0 21 0;
#X connect 20 0 31 0;
#X connect 20 1 23 0;
#X connect 20 1 32 0;
#X connect 21 0 22 0;
#X connect 22 0 25 0;
#X connect 22 0 29 0;
#X connect 23 0 24 0;
#X connect 24 0 25 1;
#X connect 24 0 30 0;
#X connect 25 0 28 0;
#X connect 26 0 27 0;
#X connect 27 0 25 2;
