#N canvas 642 190 605 631 12;
#X declare -lib Gem;
#X obj 25 14 declare -lib Gem;
#X obj 78 106 gemwin;
#X msg 64 67 create;
#X msg 127 66 destroy;
#X obj 41 80 tgl 15 0 empty empty empty 17 7 0 10 #fcfcfc #000000 #000000
0 1;
#X obj 195 37 loadbang;
#X msg 195 65 dimen 800 600;
#X obj 210 126 gemhead;
#X obj 210 192 part_head;
#X obj 210 482 part_draw;
#X msg 105 443 draw linne;
#X msg 104 406 draw point;
#X obj 210 258 part_source 20;
#X obj 210 341 part_killold 20;
#X obj 210 300 part_velocity sphere 0 0.2 0 0.2;
#X obj 210 430 part_damp;
#X floatatom 270 369 5 0 0 0 - - - 0;
#X msg 271 396 \$1 \$1 \$1;
#X connect 2 0 1 0;
#X connect 3 0 1 0;
#X connect 4 0 1 0;
#X connect 5 0 6 0;
#X connect 6 0 1 0;
#X connect 7 0 8 0;
#X connect 8 0 12 0;
#X connect 10 0 9 0;
#X connect 11 0 9 0;
#X connect 12 0 14 0;
#X connect 13 0 15 0;
#X connect 14 0 13 0;
#X connect 15 0 9 0;
#X connect 16 0 17 0;
#X connect 17 0 15 1;
