#N canvas 299 37 922 589 12;
#X declare -lib Gem;
#X obj 25 14 declare -lib Gem;
#X obj 78 106 gemwin;
#X msg 64 67 create;
#X msg 127 66 destroy;
#X obj 41 79 tgl 15 0 empty empty empty 17 7 0 10 #fcfcfc #000000 #000000
0 1;
#X obj 195 37 loadbang;
#X msg 195 65 dimen 800 600;
#X obj 393 41 loadbang;
#X obj 393 82 s init;
#X msg 281 35 lighting \$1;
#X obj 281 9 tgl 15 0 empty empty empty 17 7 0 10 #fcfcfc #000000 #000000
0 1;
#X obj 50 258 gemhead;
#X obj 50 303 world_light;
#X obj 233 159 gemhead;
#X obj 233 199 part_head;
#X obj 233 245 part_color;
#X msg 326 210 1 1 0;
#X msg 381 211 1 0 1;
#X obj 365 168 r init;
#X msg 363 250 0 -3 0, f 7;
#X obj 233 426 part_killold 20;
#X obj 233 388 part_size;
#X obj 233 460 part_render;
#X msg 162 167 speed;
#X floatatom 162 130 5 0 0 0 - - - 0;
#X floatatom 293 357 5 0 0 0 - - - 0;
#X obj 233 329 part_velocity sphere 0 0.3 0 0.2;
#X obj 233 503 s img;
#X obj 523 236 r img;
#X obj 524 313 pix_image;
#X obj 583 252 openpanel;
#X obj 583 230 bng 15 250 50 0 empty empty empty 17 7 0 10 #fcfcfc
#000000 #000000;
#X msg 583 276 open \$1;
#X obj 524 360 pix_texture;
#X obj 525 409 square;
#X floatatom 573 388 5 0 0 0 - - - 0;
#X obj 233 286 part_source 5 point;
#X connect 2 0 1 0;
#X connect 3 0 1 0;
#X connect 4 0 1 0;
#X connect 5 0 6 0;
#X connect 6 0 1 0;
#X connect 7 0 8 0;
#X connect 9 0 1 0;
#X connect 10 0 9 0;
#X connect 11 0 12 0;
#X connect 13 0 14 0;
#X connect 14 0 15 0;
#X connect 15 0 36 0;
#X connect 16 0 15 1;
#X connect 17 0 15 2;
#X connect 18 0 16 0;
#X connect 18 0 17 0;
#X connect 18 0 19 0;
#X connect 19 0 36 3;
#X connect 20 0 22 0;
#X connect 21 0 20 0;
#X connect 22 0 27 0;
#X connect 23 0 14 0;
#X connect 24 0 23 0;
#X connect 25 0 21 1;
#X connect 26 0 21 0;
#X connect 28 0 29 0;
#X connect 29 0 33 0;
#X connect 30 0 32 0;
#X connect 31 0 30 0;
#X connect 32 0 29 0;
#X connect 33 0 34 0;
#X connect 35 0 34 1;
#X connect 36 0 26 0;
