#N canvas 233 117 1023 580 12;
#X declare -lib Gem;
#X obj 25 14 declare -lib Gem;
#X obj 78 106 gemwin;
#X msg 64 67 create;
#X msg 127 66 destroy;
#X obj 41 80 tgl 15 0 empty empty empty 17 7 0 10 #fcfcfc #000000 #000000
0 1;
#X obj 195 37 loadbang;
#X msg 195 65 dimen 800 600;
#X obj 72 213 gemmouse 1 1;
#X obj 72 255 * 10.66;
#X obj 72 291 - 5.33;
#X obj 137 254 * -8;
#X obj 137 290 + 4;
#X obj 72 438 pack f f f;
#X obj 180 290 loadbang;
#X msg 180 316 0;
#X obj 72 478 s pt;
#X floatatom 181 433 5 0 0 0 - - - 0;
#X floatatom 229 432 5 0 0 0 - - - 0;
#X floatatom 23 241 5 0 0 0 - - - 0;
#X floatatom 206 235 5 0 0 0 - - - 0;
#X obj 181 462 s x;
#X obj 229 463 s y;
#X msg 234 364 0;
#X obj 234 334 r init;
#X obj 300 169 trigger f f b;
#X obj 388 229 float;
#X obj 344 269 -;
#X obj 300 132 r x;
#X obj 345 442 pack f f f f;
#X obj 345 390 * -1;
#X obj 385 390 * -1;
#X msg 425 390 0;
#X msg 462 390 0.2;
#X obj 449 341 r init;
#X obj 345 492 s vel;
#X obj 416 186 trigger f f b;
#X obj 504 246 float;
#X obj 460 286 -;
#X obj 416 149 r y;
#X obj 393 41 loadbang;
#X obj 393 82 s init;
#X obj 700 167 gemhead;
#X obj 700 207 part_head;
#X obj 700 486 part_draw;
#X msg 595 447 draw linne;
#X msg 594 410 draw point;
#X obj 700 416 part_killold 20;
#X obj 700 299 part_source 10 point;
#X obj 837 261 r pt;
#X obj 700 253 part_color;
#X msg 793 218 1 1 0;
#X msg 848 219 1 0 1;
#X obj 832 176 r init;
#X obj 700 375 part_velocity sphere;
#X obj 837 335 r vel;
#X connect 2 0 1 0;
#X connect 3 0 1 0;
#X connect 4 0 1 0;
#X connect 5 0 6 0;
#X connect 6 0 1 0;
#X connect 7 0 8 0;
#X connect 7 0 18 0;
#X connect 7 1 10 0;
#X connect 7 1 19 0;
#X connect 8 0 9 0;
#X connect 9 0 12 0;
#X connect 9 0 16 0;
#X connect 10 0 11 0;
#X connect 11 0 12 1;
#X connect 11 0 17 0;
#X connect 12 0 15 0;
#X connect 13 0 14 0;
#X connect 14 0 12 2;
#X connect 16 0 20 0;
#X connect 17 0 21 0;
#X connect 22 0 12 2;
#X connect 23 0 22 0;
#X connect 24 0 25 1;
#X connect 24 1 26 0;
#X connect 24 2 25 0;
#X connect 25 0 26 1;
#X connect 26 0 29 0;
#X connect 27 0 24 0;
#X connect 28 0 34 0;
#X connect 29 0 28 0;
#X connect 30 0 28 1;
#X connect 31 0 28 2;
#X connect 32 0 28 3;
#X connect 33 0 31 0;
#X connect 33 0 32 0;
#X connect 35 0 36 1;
#X connect 35 1 37 0;
#X connect 35 2 36 0;
#X connect 36 0 37 1;
#X connect 37 0 30 0;
#X connect 38 0 35 0;
#X connect 39 0 40 0;
#X connect 41 0 42 0;
#X connect 42 0 49 0;
#X connect 44 0 43 0;
#X connect 45 0 43 0;
#X connect 46 0 43 0;
#X connect 47 0 53 0;
#X connect 48 0 47 3;
#X connect 49 0 47 0;
#X connect 50 0 49 1;
#X connect 51 0 49 2;
#X connect 52 0 50 0;
#X connect 52 0 51 0;
#X connect 53 0 46 0;
#X connect 54 0 53 2;
