#N canvas 112 141 1171 755 12;
#X declare -lib Gem;
#X obj 25 14 declare -lib Gem;
#X obj 78 106 gemwin;
#X msg 64 67 create;
#X msg 127 66 destroy;
#X obj 41 80 tgl 15 0 empty empty empty 17 7 0 10 #fcfcfc #000000 #000000
0 1;
#X obj 195 37 loadbang;
#X msg 195 65 dimen 800 600;
#X obj 210 126 gemhead;
#X obj 210 192 part_head;
#X obj 210 258 part_source;
#X obj 210 410 part_killold;
#X obj 210 534 part_draw;
#X msg 105 477 draw linne;
#X msg 104 440 draw point;
#X msg 319 151 speed \$1;
#X floatatom 319 116 5 0 0 0 - - - 0;
#X floatatom 297 213 5 0 0 0 - - - 0;
#X obj 210 365 part_velocity;
#X symbolatom 254 330 10 0 0 0 - - - 0;
#X obj 254 302 r v1;
#X msg 442 320 set sphere;
#X obj 442 373 trigger b a b;
#X obj 442 432 s v1;
#X obj 530 457 s v2;
#X obj 338 331 r v2;
#X obj 697 399 trigger b a b;
#X obj 697 458 s v1;
#X obj 785 483 s v2;
#X msg 697 346 set point;
#X msg 785 441 0 0.1 0;
#X obj 555 352 hsl 100 15 0 1 0 0 empty empty empty -2 -8 0 10 #fcfcfc
#000000 #000000 0 1;
#X msg 530 415 0 \$1 0 0.2;
#X floatatom 321 383 5 0 0 0 - - - 0;
#X obj 49 704 part_color;
#X msg 111 658 1 0 0;
#X msg 168 659 0 1 1;
#X obj 210 487 part_targetcolor;
#X obj 328 443 hsl 80 15 0 1 0 0 empty empty empty -2 -8 0 10 #fcfcfc
#000000 #000000 0 1;
#X msg 272 441 0 0 1;
#X connect 2 0 1 0;
#X connect 3 0 1 0;
#X connect 4 0 1 0;
#X connect 5 0 6 0;
#X connect 6 0 1 0;
#X connect 7 0 8 0;
#X connect 8 0 9 0;
#X connect 9 0 17 0;
#X connect 10 0 36 0;
#X connect 12 0 11 0;
#X connect 13 0 11 0;
#X connect 14 0 8 0;
#X connect 15 0 14 0;
#X connect 16 0 9 1;
#X connect 17 0 10 0;
#X connect 18 0 17 1;
#X connect 19 0 18 0;
#X connect 20 0 21 0;
#X connect 21 0 22 0;
#X connect 21 1 22 0;
#X connect 21 2 31 0;
#X connect 24 0 17 2;
#X connect 25 0 26 0;
#X connect 25 1 26 0;
#X connect 25 2 29 0;
#X connect 28 0 25 0;
#X connect 29 0 27 0;
#X connect 30 0 31 0;
#X connect 31 0 23 0;
#X connect 32 0 10 1;
#X connect 34 0 33 1;
#X connect 35 0 33 2;
#X connect 36 0 11 0;
#X connect 37 0 36 2;
#X connect 38 0 36 1;
