#N canvas 112 213 1091 611 12;
#X declare -lib Gem;
#X obj 25 14 declare -lib Gem;
#X obj 78 106 gemwin;
#X msg 64 67 create;
#X msg 127 66 destroy;
#X obj 41 79 tgl 15 0 empty empty empty 17 7 0 10 #fcfcfc #000000 #000000
0 1;
#X obj 195 37 loadbang;
#X msg 195 65 dimen 800 600;
#X obj 393 41 loadbang;
#X obj 393 82 s init;
#X msg 281 35 lighting \$1;
#X obj 281 9 tgl 15 0 empty empty empty 17 7 0 10 #fcfcfc #000000 #000000
0 1;
#X obj 39 169 gemhead;
#X obj 39 214 world_light;
#X obj 233 159 gemhead;
#X obj 233 199 part_head;
#X obj 233 389 part_killold 20;
#X obj 233 350 part_size;
#X msg 162 167 speed;
#X floatatom 162 130 5 0 0 0 - - - 0;
#X floatatom 293 319 5 0 0 0 - - - 0;
#X obj 233 289 part_velocity sphere 0 0.3 0 0.2;
#X obj 233 244 part_source 1 point;
#X obj 233 435 s pt;
#X obj 533 146 r pt;
#X obj 533 185 part_info, f 14;
#X obj 684 371 unpack f f f;
#X floatatom 673 417 5 0 0 0 - - - 0;
#X floatatom 723 417 5 0 0 0 - - - 0;
#X floatatom 774 416 5 0 0 0 - - - 0;
#X text 830 416 position;
#X obj 533 225 separator;
#X obj 532 379 translate 1 0 0 0;
#X msg 453 496 draw line;
#X msg 453 470 draw fill;
#X obj 532 535 rectangle;
#X obj 532 340 scale 1 0 0 0;
#X floatatom 670 344 5 0 0 0 - - - 0;
#X obj 693 191 unpack f f f;
#X floatatom 682 237 5 0 0 0 - - - 0;
#X floatatom 732 237 5 0 0 0 - - - 0;
#X floatatom 783 236 5 0 0 0 - - - 0;
#X text 716 345 scale;
#X text 832 237 velocity;
#X obj 682 263 * 360;
#X obj 732 263 * 360;
#X obj 783 263 * 360;
#X obj 533 295 rotateXYZ;
#X obj 532 507 pix_texture;
#X obj 532 477 pix_image;
#X msg 572 441 open ../statics/lenna.png;
#X floatatom 694 123 5 0 0 0 - - - 0;
#X text 746 126 age;
#X floatatom 608 140 5 0 0 0 - - - 0;
#X connect 2 0 1 0;
#X connect 3 0 1 0;
#X connect 4 0 1 0;
#X connect 5 0 6 0;
#X connect 6 0 1 0;
#X connect 7 0 8 0;
#X connect 9 0 1 0;
#X connect 10 0 9 0;
#X connect 11 0 12 0;
#X connect 13 0 14 0;
#X connect 14 0 21 0;
#X connect 15 0 22 0;
#X connect 16 0 15 0;
#X connect 17 0 14 0;
#X connect 18 0 17 0;
#X connect 19 0 16 1;
#X connect 20 0 16 0;
#X connect 21 0 20 0;
#X connect 23 0 24 0;
#X connect 24 0 30 0;
#X connect 24 1 52 0;
#X connect 24 2 25 0;
#X connect 24 2 31 2;
#X connect 24 4 37 0;
#X connect 24 5 35 2;
#X connect 24 5 36 0;
#X connect 24 6 50 0;
#X connect 25 0 26 0;
#X connect 25 1 27 0;
#X connect 25 2 28 0;
#X connect 30 0 46 0;
#X connect 31 0 48 0;
#X connect 32 0 34 0;
#X connect 33 0 34 0;
#X connect 35 0 31 0;
#X connect 37 0 38 0;
#X connect 37 1 39 0;
#X connect 37 2 40 0;
#X connect 38 0 43 0;
#X connect 39 0 44 0;
#X connect 40 0 45 0;
#X connect 43 0 46 1;
#X connect 44 0 46 2;
#X connect 45 0 46 3;
#X connect 46 0 35 0;
#X connect 47 0 34 0;
#X connect 48 0 47 0;
#X connect 49 0 48 0;
