#N canvas 208 233 1179 626 12;
#X declare -lib Gem;
#X obj 25 14 declare -lib Gem;
#X obj 78 106 gemwin;
#X msg 64 67 create;
#X msg 127 66 destroy;
#X obj 41 79 tgl 15 0 empty empty empty 17 7 0 10 #fcfcfc #000000 #000000
0 1;
#X obj 195 37 loadbang;
#X msg 195 65 dimen 800 600;
#X obj 72 213 gemmouse 1 1;
#X obj 72 255 * 10.66;
#X obj 72 291 - 5.33;
#X obj 137 254 * -8;
#X obj 137 290 + 4;
#X obj 72 438 pack f f f;
#X obj 180 290 loadbang;
#X msg 180 316 0;
#X floatatom 181 433 5 0 0 0 - - - 0;
#X floatatom 229 432 5 0 0 0 - - - 0;
#X floatatom 19 227 5 0 0 0 - - - 0;
#X floatatom 19 258 5 0 0 0 - - - 0;
#X obj 181 462 s x;
#X obj 229 463 s y;
#X msg 234 364 0;
#X obj 234 334 r init;
#X obj 393 41 loadbang;
#X obj 393 82 s init;
#X obj 839 173 gemhead;
#X obj 839 213 part_head;
#X obj 839 506 part_draw;
#X msg 734 467 draw linne;
#X msg 733 430 draw point;
#X obj 839 259 part_color;
#X msg 932 224 1 1 0;
#X msg 987 225 1 0 1;
#X obj 971 182 r init;
#X obj 839 300 part_source 20;
#X obj 839 343 part_velocity sphere 0 0.2 0 0.2;
#X obj 839 416 part_orbitpoint;
#X floatatom 942 380 5 0 0 0 - - - 0;
#X obj 839 466 part_killold 40;
#X obj 284 265 trigger b f;
#X obj 72 482 trigger a a;
#X obj 146 521 spigot;
#X obj 146 564 s p2;
#X obj 1061 304 r p2;
#X obj 72 527 s p1;
#X obj 890 380 r p1;
#X connect 2 0 1 0;
#X connect 3 0 1 0;
#X connect 4 0 1 0;
#X connect 5 0 6 0;
#X connect 6 0 1 0;
#X connect 7 0 8 0;
#X connect 7 0 17 0;
#X connect 7 1 10 0;
#X connect 7 1 18 0;
#X connect 7 2 39 0;
#X connect 8 0 9 0;
#X connect 9 0 12 0;
#X connect 9 0 15 0;
#X connect 10 0 11 0;
#X connect 11 0 12 1;
#X connect 11 0 16 0;
#X connect 12 0 40 0;
#X connect 13 0 14 0;
#X connect 14 0 12 2;
#X connect 15 0 19 0;
#X connect 16 0 20 0;
#X connect 21 0 12 2;
#X connect 22 0 21 0;
#X connect 23 0 24 0;
#X connect 25 0 26 0;
#X connect 26 0 30 0;
#X connect 28 0 27 0;
#X connect 29 0 27 0;
#X connect 30 0 34 0;
#X connect 31 0 30 1;
#X connect 32 0 30 2;
#X connect 33 0 31 0;
#X connect 33 0 32 0;
#X connect 34 0 35 0;
#X connect 35 0 36 0;
#X connect 36 0 38 0;
#X connect 37 0 36 2;
#X connect 38 0 27 0;
#X connect 39 0 12 0;
#X connect 39 1 41 1;
#X connect 40 0 44 0;
#X connect 40 1 41 0;
#X connect 41 0 42 0;
#X connect 43 0 35 2;
#X connect 45 0 36 1;
