#N canvas 568 136 753 562 12;
#X declare -lib Gem;
#X obj 582 31 declare -lib Gem;
#X obj 68 73 gemwin;
#X msg 61 21 create;
#X msg 120 20 destroy;
#X obj 26 23 tgl 15 0 empty empty empty 17 7 0 10 #fcfcfc #000000 #000000
0 1;
#X obj 302 120 gemhead;
#X obj 302 184 pix_video;
#X obj 302 238 pix_rgba;
#X obj 303 325 pix_chroma_key;
#X obj 304 402 pix_texture;
#X obj 305 456 rectangle 4 3;
#X obj 432 121 gemhead;
#X obj 433 231 pix_image;
#X obj 113 131 hsl 128 15 0 1 0 0 empty empty empty -2 -8 0 10 #fcfcfc
#000000 #000000 0 1;
#X obj 113 193 hsl 128 15 0 1 0 0 empty empty empty -2 -8 0 10 #fcfcfc
#000000 #000000 0 1;
#X msg 110 155 value \$1 \$1 \$1;
#X obj 112 251 tgl 15 0 empty empty empty 17 7 0 10 #fcfcfc #000000
#000000 0 1;
#X msg 500 167 open ../statics/stars.jpeg;
#X msg 112 280 direction \$1;
#X msg 110 216 range \$1 \$1 \$1;
#X connect 2 0 1 0;
#X connect 3 0 1 0;
#X connect 4 0 1 0;
#X connect 5 0 6 0;
#X connect 6 0 7 0;
#X connect 7 0 8 0;
#X connect 8 0 9 0;
#X connect 9 0 10 0;
#X connect 11 0 12 0;
#X connect 12 0 8 1;
#X connect 13 0 15 0;
#X connect 14 0 19 0;
#X connect 15 0 8 0;
#X connect 16 0 18 0;
#X connect 17 0 12 0;
#X connect 18 0 8 0;
#X connect 19 0 8 0;
