#N canvas 788 118 519 533 12;
#X obj 66 113 gemwin;
#X msg 53 61 create;
#X msg 118 61 destroy;
#X obj 23 64 tgl 15 0 empty empty empty 17 7 0 10 #fcfcfc #000000 #000000
0 1;
#X obj 194 126 gemhead;
#X obj 194 184 pix_video;
#X msg 130 230 reset;
#X obj 194 278 pix_background;
#X msg 289 244 \$1 \$1 \$1;
#X obj 292 218 hsl 128 15 0 1 0 0 empty empty empty -2 -8 0 10 #fcfcfc
#000000 #000000 0 1;
#X obj 194 347 pix_texture;
#X obj 194 410 rectangle 4 3;
#X connect 1 0 0 0;
#X connect 2 0 0 0;
#X connect 3 0 0 0;
#X connect 4 0 5 0;
#X connect 5 0 7 0;
#X connect 6 0 7 0;
#X connect 7 0 10 0;
#X connect 8 0 7 1;
#X connect 9 0 8 0;
#X connect 10 0 11 0;
