#N canvas 495 136 694 624 12;
#X declare -lib Gem;
#X obj 70 142 gemwin;
#X obj 17 58 tgl 15 0 empty empty empty 17 7 0 10 #fcfcfc #000000 #000000
0 1;
#X msg 65 69 create;
#X msg 124 67 destroy;
#X msg 158 107 buffer 1;
#X msg 252 106 reset;
#X obj 211 58 trigger b b;
#X obj 211 29 bng 15 250 50 0 empty empty empty 17 7 0 10 #fcfcfc #000000
#000000;
#X obj 553 26 declare -lib Gem;
#X obj 440 137 gemhead;
#X obj 440 171 pix_video;
#X obj 425 292 pix_data;
#X obj 538 363 unpack f f f;
#X floatatom 537 408 5 0 0 0 - - - 0;
#X floatatom 583 407 5 0 0 0 - - - 0;
#X floatatom 632 408 5 0 0 0 - - - 0;
#X obj 513 194 random 1000;
#X obj 601 195 random 1000;
#X obj 513 226 / 1000;
#X obj 601 227 / 1000;
#X obj 332 335 color;
#X obj 394 101 trigger b b b b b;
#X obj 330 133 gemhead;
#X obj 513 259 t f f;
#X obj 601 260 t f f;
#X obj 544 289 * 8;
#X obj 544 315 - 4;
#X obj 332 387 translateXYZ;
#X obj 333 437 circle 0.2;
#X obj 394 55 metro 10;
#X obj 394 25 tgl 15 0 empty empty empty 17 7 0 10 #fcfcfc #000000
#000000 0 1;
#X obj 634 289 * 6;
#X obj 634 315 - 3;
#X connect 1 0 0 0;
#X connect 2 0 0 0;
#X connect 3 0 0 0;
#X connect 4 0 0 0;
#X connect 5 0 0 0;
#X connect 6 0 4 0;
#X connect 6 1 5 0;
#X connect 7 0 6 0;
#X connect 9 0 10 0;
#X connect 10 0 11 1;
#X connect 11 1 20 1;
#X connect 12 0 13 0;
#X connect 12 1 14 0;
#X connect 12 2 15 0;
#X connect 16 0 18 0;
#X connect 17 0 19 0;
#X connect 18 0 23 0;
#X connect 19 0 24 0;
#X connect 20 0 27 0;
#X connect 21 0 22 0;
#X connect 21 1 11 0;
#X connect 21 2 9 0;
#X connect 21 3 16 0;
#X connect 21 4 17 0;
#X connect 22 0 20 0;
#X connect 23 0 11 2;
#X connect 23 1 25 0;
#X connect 24 0 11 3;
#X connect 24 1 31 0;
#X connect 25 0 26 0;
#X connect 26 0 27 1;
#X connect 27 0 28 0;
#X connect 29 0 21 0;
#X connect 30 0 29 0;
#X connect 31 0 32 0;
#X connect 32 0 27 2;
