#N canvas 469 139 971 548 12;
#X declare -lib Gem;
#X obj 65 106 gemwin;
#X obj 315 16 declare -lib Gem;
#X obj 28 50 tgl 15 0 empty empty empty 17 7 0 10 #fcfcfc #000000 #000000
0 1;
#X msg 57 46 create;
#X msg 123 46 destroy;
#X obj 468 189 gemhead;
#X obj 472 264 pix_image;
#X obj 472 293 pix_texture;
#X obj 472 363 rectangle;
#X floatatom 502 333 5 0 0 0 - - - 0;
#X floatatom 548 334 5 0 0 0 - - - 0;
#X obj 542 157 openpanel;
#X obj 541 118 bng 15 250 50 0 empty empty empty 17 7 0 10 #fcfcfc
#000000 #000000;
#X msg 542 192 open \$1;
#X obj 255 78 gemhead;
#X obj 255 271 pix_image;
#X obj 255 300 pix_texture;
#X floatatom 280 337 5 0 0 0 - - - 0;
#X obj 334 203 openpanel;
#X obj 333 164 bng 15 250 50 0 empty empty empty 17 7 0 10 #fcfcfc
#000000 #000000;
#X msg 334 238 open \$1;
#X obj 255 166 rotateXYZ;
#X floatatom 275 114 5 0 0 0 - - - 0;
#X floatatom 326 116 5 0 0 0 - - - 0;
#X floatatom 373 114 5 0 0 0 - - - 0;
#X floatatom 299 421 5 0 0 0 - - - 0;
#X obj 274 454 cube;
#X obj 255 370 sphere;
#X floatatom 331 337 5 0 0 0 - - - 0;
#X connect 2 0 0 0;
#X connect 3 0 0 0;
#X connect 4 0 0 0;
#X connect 6 0 7 0;
#X connect 7 0 8 0;
#X connect 9 0 8 1;
#X connect 10 0 8 2;
#X connect 11 0 13 0;
#X connect 12 0 11 0;
#X connect 13 0 6 0;
#X connect 14 0 21 0;
#X connect 15 0 16 0;
#X connect 16 0 27 0;
#X connect 17 0 27 1;
#X connect 18 0 20 0;
#X connect 19 0 18 0;
#X connect 20 0 15 0;
#X connect 21 0 15 0;
#X connect 22 0 21 1;
#X connect 23 0 21 2;
#X connect 24 0 21 3;
#X connect 25 0 26 1;
#X connect 28 0 27 2;
