#N canvas 341 240 979 619 12;
#X declare -lib Gen;
#X obj 69 105 gemwin;
#X msg 75 60 create;
#X msg 139 60 destroy;
#X obj 42 65 tgl 15 0 empty empty empty 17 7 0 10 #fcfcfc #000000 #000000
0 1;
#X obj 432 30 declare -lib Gen;
#X obj 241 154 gemhead;
#X obj 409 153 gemhead;
#X obj 563 157 gemhead;
#X obj 724 162 gemhead;
#X obj 241 219 pix_image;
#X obj 409 219 pix_image;
#X obj 564 219 pix_image;
#X obj 725 221 pix_image;
#X msg 443 71 open ../statics/lenna.png;
#X obj 241 275 translate 1 -2 -2 0;
#X obj 409 273 translate 1 2 2 0;
#X obj 565 271 translate 1 -2 2 0;
#X obj 241 333 colorRGB 0 1 1 1;
#X obj 241 391 pix_texture;
#X obj 241 448 rectangle 2 2;
#X obj 411 388 pix_texture;
#X obj 411 445 rectangle 2 2;
#X obj 567 387 pix_texture;
#X obj 567 444 rectangle 2 2;
#X obj 727 387 pix_texture;
#X obj 727 443 rectangle 2 2;
#X obj 411 330 colorRGB 1 1 0 1;
#X obj 567 329 colorRGB 1 0 1 1;
#X obj 726 270 translate 1 2 -2 0;
#X obj 726 326 pix_2grey;
#X connect 1 0 0 0;
#X connect 2 0 0 0;
#X connect 3 0 0 0;
#X connect 5 0 9 0;
#X connect 6 0 10 0;
#X connect 7 0 11 0;
#X connect 8 0 12 0;
#X connect 9 0 14 0;
#X connect 10 0 15 0;
#X connect 11 0 16 0;
#X connect 12 0 28 0;
#X connect 13 0 9 0;
#X connect 13 0 10 0;
#X connect 13 0 11 0;
#X connect 13 0 12 0;
#X connect 14 0 17 0;
#X connect 15 0 26 0;
#X connect 16 0 27 0;
#X connect 17 0 18 0;
#X connect 18 0 19 0;
#X connect 20 0 21 0;
#X connect 22 0 23 0;
#X connect 24 0 25 0;
#X connect 26 0 20 0;
#X connect 27 0 22 0;
#X connect 28 0 29 0;
#X connect 29 0 24 0;
