#N canvas 412 114 872 548 12;
#X declare -lib Gem;
#X obj 65 106 gemwin;
#X obj 28 50 tgl 15 0 empty empty empty 17 7 0 10 #fcfcfc #000000 #000000
0 1;
#X msg 57 46 create;
#X msg 123 46 destroy;
#X obj 315 16 declare -lib Gem;
#X obj 227 138 gemhead;
#X obj 228 247 pix_image;
#X obj 227 438 rectangle 3 3;
#X obj 227 389 pix_texture;
#X msg 254 207 open ../statics/lenna.png;
#X obj 446 245 pix_image;
#X obj 447 136 gemhead;
#X obj 13 381 pix_add;
#X obj 13 355 pix_subtract;
#X obj 14 328 pix_diff;
#X obj 15 301 pix_multiply;
#X obj 15 274 pix_mix;
#X obj 64 250 hsl 128 15 0 1 0 0 empty empty empty -2 -8 0 10 #fcfcfc
#000000 #000000 0 1;
#X msg 493 207 open \$1;
#X obj 532 164 openpanel;
#X obj 531 135 bng 15 250 50 0 empty empty empty 17 7 0 10 #fcfcfc
#000000 #000000;
#X obj 227 351 alpha;
#X obj 228 303 pix_mix;
#X obj 275 276 hsl 128 15 0 1 0 0 empty empty empty -2 -8 0 10 #fcfcfc
#000000 #000000 0 1;
#X connect 1 0 0 0;
#X connect 2 0 0 0;
#X connect 3 0 0 0;
#X connect 5 0 6 0;
#X connect 6 0 22 0;
#X connect 8 0 7 0;
#X connect 9 0 6 0;
#X connect 10 0 22 1;
#X connect 11 0 10 0;
#X connect 17 0 16 2;
#X connect 18 0 10 0;
#X connect 19 0 18 0;
#X connect 20 0 19 0;
#X connect 21 0 8 0;
#X connect 22 0 21 0;
#X connect 23 0 22 2;
