#N canvas 567 155 561 446 12;
#X declare -lib Gem;
#X obj 61 562 gemwin;
#X msg 114 519 destroy;
#X msg 54 519 create;
#X obj 27 519 tgl 15 0 empty empty empty 17 7 0 10 #fcfcfc #000000
#000000 0 1;
#X obj 36 55 gemhead;
#X obj 221 52 gemhead;
#X obj 450 54 gemhead;
#X obj 440 10 declare -lib Gem;
#X obj 36 103 translate 2.6 -1 0 0;
#X obj 36 201 pix_video;
#X obj 36 258 pix_texture;
#X obj 36 314 rectangle 1.3 1;
#X obj 221 311 rectangle 1.3 1;
#X obj 450 312 rectangle 1.3 1;
#X obj 221 263 pix_texture;
#X obj 450 258 pix_texture;
#X obj 450 217 pix_image;
#X msg 540 146 open ../statics/ice.jpg;
#X obj 221 221 pix_film;
#X obj 221 99 translate 2.6 0 0 0;
#X obj 450 98 translate 2.6 1 0 0;
#X msg 257 132 auto 1;
#X msg 257 155 open ../statics/fluid.mp4;
#X msg 272 188 0;
#X obj 307 223 bng 15 250 50 0 empty empty empty 17 7 0 10 #fcfcfc
#000000 #000000;
#X connect 1 0 0 0;
#X connect 2 0 0 0;
#X connect 3 0 0 0;
#X connect 4 0 8 0;
#X connect 5 0 19 0;
#X connect 6 0 20 0;
#X connect 8 0 9 0;
#X connect 9 0 10 0;
#X connect 10 0 11 0;
#X connect 14 0 12 0;
#X connect 15 0 13 0;
#X connect 16 0 15 0;
#X connect 17 0 16 0;
#X connect 18 0 14 0;
#X connect 18 2 24 0;
#X connect 19 0 18 0;
#X connect 20 0 16 0;
#X connect 21 0 18 0;
#X connect 22 0 18 0;
#X connect 23 0 18 1;
#X connect 24 0 23 0;
