#N canvas 595 173 673 572 12;
#X declare -lib Gem;
#X obj 65 106 gemwin;
#X obj 315 16 declare -lib Gem;
#X obj 28 50 tgl 15 0 empty empty empty 17 7 0 10 #fcfcfc #000000 #000000
0 1;
#X msg 57 46 create;
#X msg 123 46 destroy;
#X obj 325 101 gemhead;
#X obj 322 347 pix_texture;
#X obj 322 417 rectangle 2 1.5;
#X obj 322 256 pix_video;
#X msg 227 208 enumerate;
#X msg 372 138 dialog;
#X obj 408 175 hradio 15 1 0 8 empty empty empty 0 -8 0 10 #fcfcfc
#000000 #000000 0;
#X msg 408 207 device \$1;
#X obj 382 304 print;
#X connect 2 0 0 0;
#X connect 3 0 0 0;
#X connect 4 0 0 0;
#X connect 5 0 8 0;
#X connect 6 0 7 0;
#X connect 8 0 6 0;
#X connect 8 1 13 0;
#X connect 9 0 8 0;
#X connect 10 0 8 0;
#X connect 11 0 12 0;
#X connect 12 0 8 0;
