#N canvas 172 25 1073 847 12;
#X declare -lib Gem;
#X obj 42 70 tgl 15 0 empty empty empty 17 7 0 10 #fcfcfc #000000 #000000
0 1;
#X msg 42 113 \; pd dsp \$1;
#X obj 165 24 loadbang;
#X msg 165 115 read -resize Kick_007_Noisy.wav kick;
#X msg 201 149 read -resize Snare_002.wav snare;
#X obj 167 258 soundfiler;
#N canvas 0 22 450 278 (subpatch) 0;
#X array kick 19365 float 2;
#X coords 0 1 19365 -1 200 140 1;
#X restore 28 369 graph;
#N canvas 0 22 450 278 (subpatch) 0;
#X array snare 4725 float 2;
#X coords 0 1 4725 -1 200 140 1;
#X restore 253 369 graph;
#N canvas 0 22 450 278 (subpatch) 0;
#X array hihat 66150 float 2;
#X coords 0 1 66150 -1 200 140 1;
#X restore 27 541 graph;
#X msg 235 180 read -resize HiHat_Open_003.wav hihat;
#X obj 611 433 bng 15 250 50 0 empty empty empty 17 7 0 10 #fcfcfc
#000000 #000000;
#X obj 686 557 tabplay~;
#X msg 643 492 set kick;
#X msg 751 494 set snare;
#X msg 861 492 set hihat;
#X obj 681 607 dac~;
#X obj 611 465 t b b;
#X obj 719 434 bng 15 250 50 0 empty empty empty 17 7 0 10 #fcfcfc
#000000 #000000;
#X obj 719 466 t b b;
#X obj 830 437 bng 15 250 50 0 empty empty empty 17 7 0 10 #fcfcfc
#000000 #000000;
#X obj 830 463 t b b;
#X obj 14 7 declare -lib Gem;
#X obj 165 65 trigger b b b b;
#N canvas 0 22 450 278 (subpatch) 0;
#X array chant 16011 float 2;
#X coords 0 1 16011 -1 200 140 1;
#X restore 250 542 graph;
#X msg 269 211 read -resize Chant_Who_001.wav chant;
#X obj 925 436 bng 15 250 50 0 empty empty empty 17 7 0 10 #fcfcfc
#000000 #000000;
#X obj 925 462 t b b;
#X msg 956 491 set chant;
#X obj 687 390 select 1 2 3 4;
#X floatatom 687 343 5 0 0 0 - - - 0;
#X obj 687 208 metro 200;
#X obj 686 163 tgl 15 0 empty empty empty 17 7 0 10 #fcfcfc #000000
#000000 0 1;
#X floatatom 167 291 5 0 0 0 - - - 0;
#N canvas 643 594 450 278 (subpatch) 0;
#X array loop 16 float 1;
#A 0 1 2 2 3 1 3 2 2 0.242857 3 4 2 3 1 4 1;
#X coords 0 5 15 -1 200 140 1 0 0;
#X restore 840 22 graph;
#X obj 687 258 counter 1 15;
#X obj 687 302 tabread loop;
#X connect 0 0 1 0;
#X connect 2 0 22 0;
#X connect 3 0 5 0;
#X connect 4 0 5 0;
#X connect 5 0 32 0;
#X connect 9 0 5 0;
#X connect 10 0 16 0;
#X connect 11 0 15 0;
#X connect 11 0 15 1;
#X connect 12 0 11 0;
#X connect 13 0 11 0;
#X connect 14 0 11 0;
#X connect 16 0 11 0;
#X connect 16 1 12 0;
#X connect 17 0 18 0;
#X connect 18 0 11 0;
#X connect 18 1 13 0;
#X connect 19 0 20 0;
#X connect 20 0 11 0;
#X connect 20 1 14 0;
#X connect 22 0 3 0;
#X connect 22 1 4 0;
#X connect 22 2 9 0;
#X connect 22 3 24 0;
#X connect 24 0 5 0;
#X connect 25 0 26 0;
#X connect 26 0 11 0;
#X connect 26 1 27 0;
#X connect 27 0 11 0;
#X connect 28 0 10 0;
#X connect 28 1 17 0;
#X connect 28 2 19 0;
#X connect 28 3 25 0;
#X connect 29 0 28 0;
#X connect 30 0 34 0;
#X connect 31 0 30 0;
#X connect 34 0 35 0;
#X connect 35 0 29 0;
