#N canvas 495 128 738 676 12;
#X obj 42 33 tgl 15 0 empty empty empty 17 7 0 10 #fcfcfc #000000 #000000
0 1;
#X msg 42 76 \; pd dsp \$1;
#X obj 191 87 bng 15 250 50 0 empty empty empty 17 7 0 10 #fcfcfc #000000
#000000;
#X msg 236 192 1;
#X msg 191 190 0;
#X obj 237 276 readsf~;
#X obj 237 326 dac~;
#X msg 279 233 open ./HiHat_Open_003.wav;
#X obj 191 117 spigot;
#X obj 230 54 loadbang;
#X obj 271 87 r sw;
#X msg 230 86 1;
#X obj 191 155 trigger b b b;
#X obj 283 353 s sw;
#X msg 283 315 1;
#X obj 191 229 s sw;
#X obj 69 223 trigger b f;
#X msg 69 192 0;
#X msg 69 262 1;
#X obj 69 307 s sw;
#X connect 0 0 1 0;
#X connect 2 0 8 0;
#X connect 3 0 5 0;
#X connect 4 0 15 0;
#X connect 5 0 6 0;
#X connect 5 0 6 1;
#X connect 5 1 14 0;
#X connect 7 0 5 0;
#X connect 8 0 12 0;
#X connect 9 0 11 0;
#X connect 10 0 8 1;
#X connect 11 0 8 1;
#X connect 12 0 4 0;
#X connect 12 1 3 0;
#X connect 12 2 7 0;
#X connect 14 0 13 0;
#X connect 16 0 18 0;
#X connect 16 1 5 0;
#X connect 17 0 16 0;
#X connect 18 0 19 0;
