#N canvas 92 117 1185 703 12;
#X obj 42 70 tgl 15 0 empty empty empty 17 7 0 10 #fcfcfc #000000 #000000
0 1;
#X msg 42 113 \; pd dsp \$1;
#X obj 165 24 loadbang;
#X msg 165 115 read -resize Kick_007_Noisy.wav kick;
#X msg 201 149 read -resize Snare_002.wav snare;
#X obj 167 258 soundfiler;
#X msg 235 180 read -resize HiHat_Open_003.wav hihat;
#X obj 165 65 trigger b b b b;
#X msg 269 211 read -resize Chant_Who_001.wav chant;
#X floatatom 167 291 5 0 0 0 - - - 0;
#N canvas 0 22 450 278 (subpatch) 0;
#X array kick 19365 float 2;
#X coords 0 1 19365 -1 200 140 1;
#X restore 28 369 graph;
#N canvas 0 22 450 278 (subpatch) 0;
#X array snare 4725 float 2;
#X coords 0 1 4725 -1 200 140 1;
#X restore 253 369 graph;
#N canvas 0 22 450 278 (subpatch) 0;
#X array hihat 66150 float 2;
#X coords 0 1 66150 -1 200 140 1;
#X restore 27 541 graph;
#N canvas 0 22 450 278 (subpatch) 0;
#X array chant 16011 float 2;
#X coords 0 1 16011 -1 200 140 1;
#X restore 256 540 graph;
#N canvas 643 594 450 278 (subpatch) 0;
#X array loop 16 float 1;
#A 0 1 0 1 3 0 1 4 0 0 0 2 1 2 1 2 0;
#X coords 0 5 15 -1 200 140 1 0 0;
#X restore 564 24 graph;
#X obj 571 259 hradio 15 1 0 5 empty empty empty 0 -8 0 10 #fcfcfc
#000000 #000000 0;
#X text 569 227 Input;
#X obj 571 346 s play;
#X obj 645 346 tabwrite loop;
#X obj 571 301 trigger f f;
#X obj 733 210 tgl 15 0 empty empty empty 17 7 0 10 #fcfcfc #000000
#000000 0 1;
#X obj 733 230 metro 200;
#X obj 733 254 counter 0 15;
#X obj 733 284 hradio 15 1 0 15 empty empty empty 0 -8 0 10 #fcfcfc
#000000 #000000 0;
#X obj 733 311 trigger f f;
#X obj 807 348 tabread loop;
#X obj 808 382 s play;
#X obj 547 484 bng 15 250 50 0 empty empty empty 17 7 0 10 #fcfcfc
#000000 #000000;
#X obj 622 608 tabplay~;
#X msg 579 543 set kick;
#X msg 687 545 set snare;
#X msg 797 543 set hihat;
#X obj 617 658 dac~;
#X obj 547 516 t b b;
#X obj 655 485 bng 15 250 50 0 empty empty empty 17 7 0 10 #fcfcfc
#000000 #000000;
#X obj 655 517 t b b;
#X obj 766 488 bng 15 250 50 0 empty empty empty 17 7 0 10 #fcfcfc
#000000 #000000;
#X obj 766 514 t b b;
#X obj 861 487 bng 15 250 50 0 empty empty empty 17 7 0 10 #fcfcfc
#000000 #000000;
#X obj 861 513 t b b;
#X msg 892 542 set chant;
#X obj 623 441 select 1 2 3 4;
#X obj 623 402 r play;
#X connect 0 0 1 0;
#X connect 2 0 7 0;
#X connect 3 0 5 0;
#X connect 4 0 5 0;
#X connect 5 0 9 0;
#X connect 6 0 5 0;
#X connect 7 0 3 0;
#X connect 7 1 4 0;
#X connect 7 2 6 0;
#X connect 7 3 8 0;
#X connect 8 0 5 0;
#X connect 15 0 19 0;
#X connect 19 0 17 0;
#X connect 19 1 18 0;
#X connect 20 0 21 0;
#X connect 21 0 22 0;
#X connect 22 0 23 0;
#X connect 23 0 24 0;
#X connect 24 0 18 1;
#X connect 24 1 25 0;
#X connect 25 0 26 0;
#X connect 27 0 33 0;
#X connect 28 0 32 0;
#X connect 28 0 32 1;
#X connect 29 0 28 0;
#X connect 30 0 28 0;
#X connect 31 0 28 0;
#X connect 33 0 28 0;
#X connect 33 1 29 0;
#X connect 34 0 35 0;
#X connect 35 0 28 0;
#X connect 35 1 30 0;
#X connect 36 0 37 0;
#X connect 37 0 28 0;
#X connect 37 1 31 0;
#X connect 38 0 39 0;
#X connect 39 0 28 0;
#X connect 39 1 40 0;
#X connect 40 0 28 0;
#X connect 41 0 27 0;
#X connect 41 1 34 0;
#X connect 41 2 36 0;
#X connect 41 3 38 0;
#X connect 42 0 41 0;
