#N canvas 689 -883 543 394 12;
#X obj 178 244 ffplay~;
#X obj 177 305 dac~;
#X obj 160 170 openpanel;
#X obj 160 150 bng 15 250 50 0 empty empty empty 17 7 0 10 #fcfcfc
#000000 #000000;
#X msg 160 195 open \$1;
#X obj 112 222 bng 15 250 50 0 empty empty empty 17 7 0 10 #fcfcfc
#000000 #000000;
#X obj 27 17 tgl 15 0 empty empty empty 17 7 0 10 #fcfcfc #000000 #000000
0 1;
#X msg 27 60 \; pd dsp \$1;
#X obj 254 181 hsl 128 15 0 2 0 0 empty empty empty -2 -8 0 10 #fcfcfc
#000000 #000000 0 1;
#X floatatom 323 213 5 0 0 0 - - - 0;
#X msg 251 213 speed \$1;
#X text 180 145 open file;
#X text 26 222 play/pause;
#X obj 224 285 print;
#X connect 0 0 1 0;
#X connect 0 1 1 1;
#X connect 0 2 13 0;
#X connect 2 0 4 0;
#X connect 3 0 2 0;
#X connect 4 0 0 0;
#X connect 5 0 0 0;
#X connect 6 0 7 0;
#X connect 8 0 10 0;
#X connect 8 0 9 0;
#X connect 10 0 0 0;
