#N canvas 447 75 772 636 12;
#X obj 33 52 tgl 15 0 empty empty empty 17 7 0 10 #fcfcfc #000000 #000000
0 1;
#X msg 33 93 \; pd dsp \$1;
#X obj 236 81 adc~;
#X obj 247 127 fiddle~, f 8;
#X obj 287 174 int;
#X obj 320 174 int;
#X obj 269 234 int;
#X obj 302 235 int;
#X obj 401 154 trigger b b b;
#X obj 401 111 metro 100;
#X obj 401 81 tgl 15 0 empty empty empty 17 7 0 10 #fcfcfc #000000
#000000 0 1;
#X obj 461 80 r num;
#X obj 402 234 random 300;
#X obj 402 276 + 100;
#X obj 402 319 trigger f f;
#X obj 476 365 s num;
#X obj 269 356 makenote;
#X floatatom 269 275 5 0 0 0 - - - 0;
#X floatatom 313 275 5 0 0 0 - - - 0;
#X obj 313 301 * 2;
#X obj 278 420 noteout;
#X msg 348 385 1;
#X connect 0 0 1 0;
#X connect 2 0 3 0;
#X connect 2 1 3 0;
#X connect 3 2 4 0;
#X connect 3 3 5 0;
#X connect 4 0 6 1;
#X connect 5 0 7 1;
#X connect 6 0 17 0;
#X connect 7 0 18 0;
#X connect 8 0 6 0;
#X connect 8 1 7 0;
#X connect 8 2 12 0;
#X connect 9 0 8 0;
#X connect 10 0 9 0;
#X connect 11 0 9 1;
#X connect 12 0 13 0;
#X connect 13 0 14 0;
#X connect 14 0 16 2;
#X connect 14 1 15 0;
#X connect 16 0 20 0;
#X connect 16 1 20 1;
#X connect 17 0 16 0;
#X connect 18 0 19 0;
#X connect 19 0 16 1;
#X connect 21 0 20 2;
