#N canvas 92 117 450 300 12;
#X obj 33 52 tgl 15 0 empty empty empty 17 7 0 10 #fcfcfc #000000 #000000
0 1;
#X msg 33 93 \; pd dsp \$1;
#X obj 236 81 adc~;
#X obj 247 127 fiddle~, f 8;
#X obj 287 174 int;
#X obj 320 174 int;
#X floatatom 277 215 5 0 0 0 - - - 0;
#X floatatom 327 214 5 0 0 0 - - - 0;
#X connect 0 0 1 0;
#X connect 2 0 3 0;
#X connect 2 1 3 0;
#X connect 3 2 4 0;
#X connect 3 3 5 0;
#X connect 4 0 6 0;
#X connect 5 0 7 0;
