#N canvas 730 123 663 456 12;
#X obj 38 37 tgl 15 0 empty empty empty 17 7 0 10 #fcfcfc #000000 #000000
0 1;
#X obj 38 72 metro 500;
#X obj 98 37 r dur;
#X obj 38 115 trigger b b b;
#X obj 38 168 random 128;
#X obj 125 169 random 100;
#X obj 215 170 random 500;
#X obj 125 206 + 20;
#X obj 215 207 + 100;
#X obj 215 243 t f f;
#X obj 247 282 s dur;
#X obj 91 288 makenote;
#X obj 108 347 noteout;
#X msg 165 315 1;
#X obj 301 70 pgmout;
#X floatatom 296 27 5 0 0 0 - - - 0;
#X msg 346 27 1;
#X msg 386 28 2;
#X connect 0 0 1 0;
#X connect 1 0 3 0;
#X connect 2 0 1 1;
#X connect 3 0 4 0;
#X connect 3 1 5 0;
#X connect 3 2 6 0;
#X connect 4 0 11 0;
#X connect 5 0 7 0;
#X connect 6 0 8 0;
#X connect 7 0 11 1;
#X connect 8 0 9 0;
#X connect 9 0 11 2;
#X connect 9 1 10 0;
#X connect 11 0 12 0;
#X connect 11 1 12 1;
#X connect 13 0 12 2;
#X connect 15 0 14 0;
#X connect 16 0 14 1;
#X connect 17 0 14 1;
