#N canvas 150 175 753 416 12;
#X obj 38 37 tgl 15 0 empty empty empty 17 7 0 10 #fcfcfc #000000 #000000
0 1;
#X obj 38 72 metro 500;
#X obj 38 115 trigger b b b;
#X obj 125 169 random 100;
#X obj 215 170 random 500;
#X obj 125 206 + 20;
#X obj 215 207 + 100;
#X obj 215 243 t f f;
#X obj 91 288 makenote;
#X obj 108 347 noteout;
#X msg 165 315 1;
#X obj 236 102 pgmout;
#X floatatom 231 59 5 0 0 0 - - - 0;
#X msg 281 59 1;
#X obj 414 42 tgl 15 0 empty empty empty 17 7 0 10 #fcfcfc #000000
#000000 0 1;
#X obj 414 77 metro 500;
#X obj 414 120 trigger b b b;
#X obj 501 174 random 100;
#X obj 591 175 random 500;
#X obj 501 211 + 20;
#X obj 591 212 + 100;
#X obj 591 248 t f f;
#X obj 467 293 makenote;
#X obj 484 352 noteout;
#X msg 541 320 2;
#X obj 98 37 r dur1;
#X obj 247 282 s dur1;
#X obj 474 42 r dur2;
#X obj 623 287 s dur2;
#X obj 38 168 random 60;
#X obj 414 173 random 50;
#X obj 62 218 + 40;
#X obj 611 108 pgmout;
#X floatatom 607 66 5 0 0 0 - - - 0;
#X msg 661 66 2;
#X connect 0 0 1 0;
#X connect 1 0 2 0;
#X connect 2 0 29 0;
#X connect 2 1 3 0;
#X connect 2 2 4 0;
#X connect 3 0 5 0;
#X connect 4 0 6 0;
#X connect 5 0 8 1;
#X connect 6 0 7 0;
#X connect 7 0 8 2;
#X connect 7 1 26 0;
#X connect 8 0 9 0;
#X connect 8 1 9 1;
#X connect 10 0 9 2;
#X connect 12 0 11 0;
#X connect 13 0 11 1;
#X connect 14 0 15 0;
#X connect 15 0 16 0;
#X connect 16 0 30 0;
#X connect 16 1 17 0;
#X connect 16 2 18 0;
#X connect 17 0 19 0;
#X connect 18 0 20 0;
#X connect 19 0 22 1;
#X connect 20 0 21 0;
#X connect 21 0 22 2;
#X connect 21 1 28 0;
#X connect 22 0 23 0;
#X connect 22 1 23 1;
#X connect 24 0 23 2;
#X connect 25 0 1 1;
#X connect 27 0 15 1;
#X connect 29 0 31 0;
#X connect 30 0 22 0;
#X connect 31 0 8 0;
#X connect 33 0 32 0;
#X connect 34 0 32 1;
