#N canvas 188 169 490 300 12;
#X obj 128 49 bng 15 250 50 0 empty empty empty 17 7 0 10 #fcfcfc #000000
#000000;
#X obj 128 96 trigger b b b;
#X msg 171 137 100;
#X msg 268 137 500;
#X text 22 139 midi number;
#X text 198 136 velocity;
#X text 295 137 duration;
#X obj 145 186 makenote;
#X obj 161 242 noteout;
#X msg 221 207 1;
#X msg 109 138 60;
#X obj 306 260 pgmout;
#X floatatom 348 224 5 0 0 0 - - - 0;
#X text 249 208 channel;
#X text 396 224 program;
#X connect 0 0 1 0;
#X connect 1 0 10 0;
#X connect 1 1 2 0;
#X connect 1 2 3 0;
#X connect 2 0 7 1;
#X connect 3 0 7 2;
#X connect 7 0 8 0;
#X connect 7 1 8 1;
#X connect 9 0 8 2;
#X connect 9 0 11 1;
#X connect 10 0 7 0;
#X connect 12 0 11 0;
