#N canvas 95 174 1169 584 12;
#X obj 184 333 float;
#X obj 278 329 +;
#X msg 184 238 0;
#X obj 184 280 t b f;
#X floatatom 233 363 5 0 0 0 - - - 0;
#X obj 153 310 bng 15 250 50 0 empty empty empty 17 7 0 10 #fcfcfc
#000000 #000000;
#X obj 333 287 float;
#X obj 360 242 t b f;
#X obj 396 288 * -1;
#X obj 255 234 t b b b;
#X obj 239 267 s x3;
#X obj 184 391 t f f;
#X obj 255 478 select 1;
#X floatatom 335 335 5 0 0 0 - - - 0;
#X obj 570 332 float;
#X obj 664 328 +;
#X msg 570 237 0;
#X obj 570 279 t b f;
#X floatatom 619 362 5 0 0 0 - - - 0;
#X obj 539 309 bng 15 250 50 0 empty empty empty 17 7 0 10 #fcfcfc
#000000 #000000;
#X obj 719 286 float;
#X obj 746 241 t b f;
#X obj 812 267 * -1;
#X obj 641 233 t b b b;
#X obj 570 390 t f f;
#X obj 641 477 select 1;
#X floatatom 721 334 5 0 0 0 - - - 0;
#X obj 625 266 s y3;
#X obj 54 43 inlet;
#X text 106 40 Metro;
#X obj 226 41 inlet;
#X obj 54 108 s \$0-x3;
#X obj 128 109 s \$0-y3;
#X obj 183 541 outlet;
#X obj 570 544 outlet;
#X obj 226 105 s \$0-reset;
#X text 290 39 reset;
#X obj 185 164 r \$0-reset;
#X obj 569 162 r \$0-reset;
#X obj 399 43 inlet;
#X obj 399 91 s \$0-x3;
#X obj 756 39 inlet;
#X obj 756 87 s \$0-y3;
#X text 447 40 x velocity;
#X text 801 36 y velocity;
#X obj 399 67 trigger b f;
#X obj 756 63 trigger b f;
#X obj 54 79 trigger b b;
#X obj 255 509 s \$0-x2;
#X obj 641 508 s \$0-y2;
#X obj 255 202 r \$0-x2;
#X obj 641 201 r \$0-y2;
#X obj 120 281 r \$0-x3;
#X obj 505 278 r \$0-y3;
#X obj 957 42 inlet;
#X obj 958 86 s \$0-x2;
#X obj 1036 40 inlet;
#X obj 1036 85 s \$0-y2;
#X text 997 119 change direction;
#X obj 255 444 expr $f1> 3.5 || $f1<-3.5;
#X obj 641 443 expr $f1> 3.5 || $f1<-3.5;
#X connect 0 0 1 0;
#X connect 0 0 4 0;
#X connect 0 0 11 0;
#X connect 1 0 0 1;
#X connect 2 0 3 0;
#X connect 3 0 0 0;
#X connect 3 1 0 1;
#X connect 5 0 0 0;
#X connect 6 0 8 0;
#X connect 6 0 1 1;
#X connect 6 0 13 0;
#X connect 7 0 6 0;
#X connect 7 1 6 1;
#X connect 8 0 6 1;
#X connect 9 0 10 0;
#X connect 9 1 1 0;
#X connect 9 2 6 0;
#X connect 11 0 33 0;
#X connect 11 1 59 0;
#X connect 12 0 48 0;
#X connect 14 0 15 0;
#X connect 14 0 18 0;
#X connect 14 0 24 0;
#X connect 15 0 14 1;
#X connect 16 0 17 0;
#X connect 17 0 14 0;
#X connect 17 1 14 1;
#X connect 19 0 14 0;
#X connect 20 0 22 0;
#X connect 20 0 15 1;
#X connect 20 0 26 0;
#X connect 21 0 20 0;
#X connect 21 1 20 1;
#X connect 22 0 20 1;
#X connect 23 0 27 0;
#X connect 23 1 15 0;
#X connect 23 2 20 0;
#X connect 24 0 34 0;
#X connect 24 1 60 0;
#X connect 25 0 49 0;
#X connect 28 0 47 0;
#X connect 30 0 35 0;
#X connect 37 0 2 0;
#X connect 38 0 16 0;
#X connect 39 0 45 0;
#X connect 41 0 46 0;
#X connect 45 0 40 0;
#X connect 45 1 7 0;
#X connect 46 0 42 0;
#X connect 46 1 21 0;
#X connect 47 0 31 0;
#X connect 47 1 32 0;
#X connect 50 0 9 0;
#X connect 51 0 23 0;
#X connect 52 0 5 0;
#X connect 53 0 19 0;
#X connect 54 0 55 0;
#X connect 56 0 57 0;
#X connect 59 0 12 0;
#X connect 60 0 25 0;
