#N canvas 94 125 665 729 12;
#X declare -lib Gem;
#X obj 477 32 declare -lib Gem;
#X msg 77 31 create;
#X msg 146 31 destroy;
#X obj 37 38 tgl 15 0 empty empty empty 17 7 0 10 #fcfcfc #000000 #000000
0 1;
#X obj 92 151 gemhead;
#X obj 92 282 color;
#X obj 92 335 translateXYZ;
#X obj 92 394 square 0.2;
#X obj 434 99 gemmouse 1 1;
#X floatatom 166 137 5 0 0 0 - - - 0;
#X floatatom 221 134 5 0 0 0 - - - 0;
#X obj 166 169 s x;
#X obj 221 170 s y;
#X obj 379 154 * 8;
#X obj 455 155 * -8;
#X obj 379 188 - 4;
#X obj 455 191 + 4;
#X obj 381 252 abs;
#X obj 456 250 abs;
#X floatatom 324 273 5 0 0 0 - - - 0;
#X floatatom 499 273 5 0 0 0 - - - 0;
#X obj 83 81 gemwin;
#X obj 380 221 -;
#X obj 455 222 -;
#X obj 415 197 r x;
#X obj 494 197 r y;
#X obj 130 305 r x;
#X obj 165 306 r y;
#X obj 380 295 < 0.2;
#X obj 457 295 < 0.2;
#X obj 457 331 t b f;
#X obj 341 481 spigot;
#X obj 341 424 r b;
#X obj 380 388 &&;
#X obj 507 132 s b;
#X obj 123 220 r white;
#X obj 186 220 r yellow;
#X obj 255 219 r red;
#X msg 123 244 1 1 1;
#X msg 186 244 1 1 0;
#X msg 255 243 1 0 0;
#X obj 345 681 s red;
#X obj 380 430 trigger f f;
#X floatatom 486 432 5 0 0 0 - - - 0;
#X obj 465 679 s white;
#X obj 397 681 s yellow;
#X obj 353 542 expr if($f1==1 && $f2==1 \, 1 \, 0);
#X obj 378 570 expr if($f1==0 && $f2==1 \, 2 \, 0);
#X obj 486 471 trigger b f;
#X obj 412 598 expr if($f1==0 && $f2==0 \, 3 \, 0);
#X obj 360 644 select 1 2 3;
#X connect 1 0 21 0;
#X connect 2 0 21 0;
#X connect 3 0 21 0;
#X connect 4 0 5 0;
#X connect 5 0 6 0;
#X connect 6 0 7 0;
#X connect 8 0 13 0;
#X connect 8 1 14 0;
#X connect 8 2 34 0;
#X connect 9 0 11 0;
#X connect 10 0 12 0;
#X connect 13 0 15 0;
#X connect 14 0 16 0;
#X connect 15 0 22 0;
#X connect 16 0 23 0;
#X connect 17 0 19 0;
#X connect 17 0 28 0;
#X connect 18 0 20 0;
#X connect 18 0 29 0;
#X connect 22 0 17 0;
#X connect 23 0 18 0;
#X connect 24 0 22 1;
#X connect 25 0 23 1;
#X connect 26 0 6 1;
#X connect 27 0 6 2;
#X connect 28 0 33 0;
#X connect 29 0 30 0;
#X connect 30 0 33 0;
#X connect 30 1 33 1;
#X connect 31 0 49 0;
#X connect 31 0 47 0;
#X connect 31 0 46 0;
#X connect 32 0 31 0;
#X connect 33 0 42 0;
#X connect 35 0 38 0;
#X connect 36 0 39 0;
#X connect 37 0 40 0;
#X connect 38 0 5 1;
#X connect 39 0 5 1;
#X connect 40 0 5 1;
#X connect 42 0 31 1;
#X connect 42 1 43 0;
#X connect 42 1 48 0;
#X connect 46 0 50 0;
#X connect 47 0 50 0;
#X connect 48 0 49 0;
#X connect 48 0 47 0;
#X connect 48 0 46 0;
#X connect 48 1 49 1;
#X connect 48 1 47 1;
#X connect 48 1 46 1;
#X connect 49 0 50 0;
#X connect 50 0 41 0;
#X connect 50 1 45 0;
#X connect 50 2 44 0;
