#N canvas 63 88 679 585 12;
#X declare -lib Gem;
#X obj 55 89 gemwin;
#X msg 56 54 create;
#X msg 118 53 destroy;
#X obj 26 68 tgl 15 0 empty empty empty 17 7 0 10 #fcfcfc #000000 #000000
0 1;
#X obj 14 10 declare -lib Gem;
#X obj 400 74 gemhead;
#X obj 399 167 pix_film;
#X obj 473 65 openpanel;
#X msg 473 100 open \$1;
#X msg 467 137 0;
#X obj 486 169 bng 15 250 50 0 empty empty empty 17 7 0 10 #fcfcfc
#000000 #000000;
#X obj 390 489 pix_texture;
#X obj 390 536 rectangle 2.25 4;
#X obj 399 224 trigger a a a a;
#X obj 245 274 pix_separator;
#X obj 350 274 pix_separator;
#X obj 454 274 pix_separator;
#X obj 560 274 pix_separator;
#X obj 350 357 pix_posterize;
#X obj 454 357 pix_metaimage;
#X obj 561 357 pix_invert;
#X obj 397 322 hsl 50 15 0 1 0 0 empty empty empty -2 -8 0 10 #fcfcfc
#000000 #000000 0 1;
#X obj 502 321 hsl 50 15 0 1 0 0 empty empty empty -2 -8 0 10 #fcfcfc
#000000 #000000 0 1;
#X obj 390 447 switch 4;
#X obj 83 191 gemkeyboard;
#X obj 473 34 bng 15 250 50 0 empty empty empty 17 7 0 10 #fcfcfc #000000
#000000;
#X msg 316 129 auto \$1;
#X obj 316 99 tgl 15 0 empty empty empty 17 7 0 10 #fcfcfc #000000
#000000 0 1;
#X floatatom 29 221 5 0 0 0 - - - 0;
#X obj 83 248 select 49 50 51 52;
#X msg 56 338 1;
#X msg 95 338 2;
#X msg 136 338 3;
#X msg 177 338 4;
#X connect 1 0 0 0;
#X connect 2 0 0 0;
#X connect 3 0 0 0;
#X connect 5 0 6 0;
#X connect 6 0 13 0;
#X connect 6 2 10 0;
#X connect 7 0 8 0;
#X connect 8 0 6 0;
#X connect 9 0 6 1;
#X connect 10 0 9 0;
#X connect 11 0 12 0;
#X connect 13 0 14 0;
#X connect 13 1 15 0;
#X connect 13 2 16 0;
#X connect 13 3 17 0;
#X connect 14 0 23 1;
#X connect 15 0 18 0;
#X connect 16 0 19 0;
#X connect 17 0 20 0;
#X connect 18 0 23 2;
#X connect 19 0 23 3;
#X connect 20 0 23 4;
#X connect 21 0 18 1;
#X connect 22 0 19 1;
#X connect 23 0 11 0;
#X connect 24 0 28 0;
#X connect 24 0 29 0;
#X connect 25 0 7 0;
#X connect 26 0 6 0;
#X connect 27 0 26 0;
#X connect 29 0 30 0;
#X connect 29 1 31 0;
#X connect 29 2 32 0;
#X connect 29 3 33 0;
#X connect 30 0 23 0;
#X connect 31 0 23 0;
#X connect 32 0 23 0;
#X connect 33 0 23 0;
