#N canvas 456 188 714 545 12;
#X declare -lib Gem;
#X obj 55 89 gemwin;
#X obj 555 17 declare -lib Gem;
#X msg 56 54 create;
#X msg 118 53 destroy;
#X obj 26 68 tgl 15 0 empty empty empty 17 7 0 10 #fcfcfc #000000 #000000
0 1;
#X obj 180 237 gemhead;
#X obj 180 381 pix_film;
#X obj 180 435 pix_texture;
#X msg 289 249 open ../statics/flower-woman.mp4;
#X msg 233 353 0;
#X obj 269 382 bng 15 250 50 0 empty empty empty 17 7 0 10 #fcfcfc
#000000 #000000;
#X obj 111 307 tgl 15 0 empty empty empty 17 7 0 10 #fcfcfc #000000
#000000 0 1;
#X msg 111 335 auto \$1;
#X obj 339 65 gemkeyboard;
#X floatatom 282 122 5 0 0 0 - - - 0;
#X obj 341 143 select 49 50 51;
#X msg 331 278 open ../statics/grape.mp4;
#X msg 264 219 open ../statics/ballet.mp4;
#X obj 180 494 rectangle 2.25 4;
#X obj 340 102 change;
#X connect 2 0 0 0;
#X connect 3 0 0 0;
#X connect 4 0 0 0;
#X connect 5 0 6 0;
#X connect 6 0 7 0;
#X connect 6 2 10 0;
#X connect 7 0 18 0;
#X connect 8 0 6 0;
#X connect 9 0 6 1;
#X connect 10 0 9 0;
#X connect 11 0 12 0;
#X connect 12 0 6 0;
#X connect 13 0 14 0;
#X connect 13 0 19 0;
#X connect 15 0 17 0;
#X connect 15 1 8 0;
#X connect 15 2 16 0;
#X connect 16 0 6 0;
#X connect 17 0 6 0;
#X connect 19 0 15 0;
