#N canvas 701 68 643 556 12;
#X declare -lib Gem;
#X obj 99 109 gemwin;
#X msg 81 52 create;
#X msg 140 51 destroy;
#X obj 37 72 tgl 15 0 empty empty empty 17 7 0 10 #fcfcfc #000000 #000000
0 1;
#X obj 319 15 declare -lib Gem;
#X obj 136 217 gemhead;
#X obj 391 68 gemkeyboard;
#X floatatom 326 99 5 0 0 0 - - - 0;
#X obj 349 200 trigger b b f;
#X obj 470 200 trigger b b f;
#X obj 318 257 float;
#X obj 403 256 +;
#X msg 247 157 0;
#X obj 247 200 trigger b f;
#X msg 54 283 draw line;
#X obj 136 422 cube;
#X obj 137 308 rotateXYZ;
#X obj 54 237 loadbang;
#X obj 391 115 select 263 262 265 264;
#X obj 361 338 trigger b b f;
#X obj 482 338 trigger b b f;
#X obj 330 395 float;
#X obj 415 394 +;
#X msg 259 295 0;
#X obj 259 338 trigger b f;
#X msg 536 155 3;
#X msg 489 155 -3;
#X msg 438 155 3;
#X msg 391 154 -3;
#X floatatom 161 392 5 0 0 0 - - - 0;
#X msg 161 361 1;
#X connect 1 0 0 0;
#X connect 2 0 0 0;
#X connect 3 0 0 0;
#X connect 5 0 16 0;
#X connect 6 0 7 0;
#X connect 6 0 18 0;
#X connect 8 0 10 0;
#X connect 8 1 11 0;
#X connect 8 2 11 1;
#X connect 9 0 10 0;
#X connect 9 2 11 1;
#X connect 10 0 11 0;
#X connect 10 0 16 2;
#X connect 11 0 10 1;
#X connect 12 0 13 0;
#X connect 13 0 10 0;
#X connect 13 1 10 1;
#X connect 14 0 15 0;
#X connect 16 0 15 0;
#X connect 17 0 14 0;
#X connect 17 0 30 0;
#X connect 18 0 28 0;
#X connect 18 1 27 0;
#X connect 18 2 26 0;
#X connect 18 3 25 0;
#X connect 19 0 21 0;
#X connect 19 1 22 0;
#X connect 19 2 22 1;
#X connect 20 0 21 0;
#X connect 20 2 22 1;
#X connect 21 0 22 0;
#X connect 21 0 16 1;
#X connect 22 0 21 1;
#X connect 23 0 24 0;
#X connect 24 0 21 0;
#X connect 24 1 21 1;
#X connect 25 0 20 0;
#X connect 26 0 19 0;
#X connect 27 0 9 0;
#X connect 28 0 8 0;
#X connect 29 0 15 1;
#X connect 30 0 29 0;
