#N canvas 385 33 1041 755 12;
#X declare -lib Gem;
#X obj 55 89 gemwin;
#X obj 555 17 declare -lib Gem;
#X msg 56 54 create;
#X msg 118 53 destroy;
#X obj 26 68 tgl 15 0 empty empty empty 17 7 0 10 #fcfcfc #000000 #000000
0 1;
#X obj 180 272 gemhead;
#X obj 180 458 pix_film;
#X msg 233 430 0;
#X obj 271 459 bng 15 250 50 0 empty empty empty 17 7 0 10 #fcfcfc
#000000 #000000;
#X obj 111 384 tgl 15 0 empty empty empty 17 7 0 10 #fcfcfc #000000
#000000 0 1;
#X msg 111 412 auto \$1;
#X obj 504 57 gemkeyboard;
#X floatatom 399 83 5 0 0 0 - - - 0;
#X obj 365 216 select 49 50 51;
#X obj 364 176 change;
#X obj 668 165 change;
#X obj 558 283 gemhead;
#X obj 558 469 pix_film;
#X obj 499 414 tgl 15 0 empty empty empty 17 7 0 10 #fcfcfc #000000
#000000 0 1;
#X msg 500 440 auto \$1;
#X obj 382 611 pix_mix;
#X obj 488 600 hsl 128 15 0 1 0 0 empty empty empty -2 -8 0 10 #fcfcfc
#000000 #000000 0 1;
#X obj 382 708 rectangle 2.25 4;
#X obj 381 660 pix_texture;
#X msg 619 441 0;
#X obj 652 464 bng 15 250 50 0 empty empty empty 17 7 0 10 #fcfcfc
#000000 #000000;
#X obj 505 123 moses 52;
#X obj 668 217 select 52 53 54;
#X obj 541 533 gemmouse 1 1;
#X msg 216 317 open ../statics/firework.mp4;
#X msg 238 347 open ../statics/dance.mp4;
#X msg 289 377 open ../statics/colorfluid.mp4;
#X msg 725 309 open ../statics/fluidsmoke.mp4;
#X msg 692 350 open ../statics/redhead.mp4;
#X msg 651 386 open ../statics/grape.mp4;
#X obj 275 110 select 256;
#X obj 543 570 clip 0 1;
#X connect 2 0 0 0;
#X connect 3 0 0 0;
#X connect 4 0 0 0;
#X connect 5 0 6 0;
#X connect 6 0 20 0;
#X connect 6 2 8 0;
#X connect 7 0 6 1;
#X connect 8 0 7 0;
#X connect 9 0 10 0;
#X connect 10 0 6 0;
#X connect 11 0 12 0;
#X connect 11 0 14 0;
#X connect 11 0 26 0;
#X connect 11 0 35 0;
#X connect 13 0 29 0;
#X connect 13 1 30 0;
#X connect 13 2 31 0;
#X connect 14 0 13 0;
#X connect 15 0 27 0;
#X connect 16 0 17 0;
#X connect 17 0 20 1;
#X connect 17 2 25 0;
#X connect 18 0 19 0;
#X connect 19 0 17 0;
#X connect 20 0 23 0;
#X connect 21 0 20 2;
#X connect 23 0 22 0;
#X connect 24 0 17 1;
#X connect 25 0 24 0;
#X connect 26 0 14 0;
#X connect 26 1 15 0;
#X connect 27 0 34 0;
#X connect 27 1 33 0;
#X connect 27 2 32 0;
#X connect 28 0 36 0;
#X connect 29 0 6 0;
#X connect 30 0 6 0;
#X connect 31 0 6 0;
#X connect 32 0 17 0;
#X connect 33 0 17 0;
#X connect 34 0 17 0;
#X connect 35 0 3 0;
#X connect 36 0 21 0;
