#N canvas 155 241 450 539 12;
#X declare -lib Gem;
#X obj 90 103 gemwin;
#X msg 65 45 create;
#X msg 131 45 destroy;
#X obj 29 68 tgl 15 0 empty empty empty 17 7 0 10 #fcfcfc #000000 #000000
0 1;
#X obj 17 13 declare -lib Gem;
#X obj 241 128 gemkeyboard;
#X floatatom 262 164 5 0 0 0 - - - 0;
#X obj 214 192 select 263 262;
#X obj 214 265 t b b f;
#X obj 214 312 float;
#X obj 271 312 +;
#X floatatom 213 369 5 0 0 0 - - - 0;
#X obj 110 407 translateXYZ 0 -3.8 0;
#X obj 109 239 gemhead;
#X obj 109 300 color 0 1 1;
#X obj 110 466 rectangle 1 0.2;
#X msg 214 228 -0.5;
#X msg 261 228 0.5;
#X connect 1 0 0 0;
#X connect 2 0 0 0;
#X connect 3 0 0 0;
#X connect 5 0 6 0;
#X connect 5 0 7 0;
#X connect 7 0 16 0;
#X connect 7 1 17 0;
#X connect 8 0 9 0;
#X connect 8 1 10 0;
#X connect 8 2 10 1;
#X connect 9 0 10 0;
#X connect 9 0 11 0;
#X connect 10 0 9 1;
#X connect 11 0 12 1;
#X connect 12 0 15 0;
#X connect 13 0 14 0;
#X connect 14 0 12 0;
#X connect 16 0 8 0;
#X connect 17 0 8 0;
