#N canvas 716 159 594 472 12;
#X declare -lib Gem;
#X obj 99 109 gemwin;
#X msg 81 52 create;
#X msg 140 51 destroy;
#X obj 37 72 tgl 15 0 empty empty empty 17 7 0 10 #fcfcfc #000000 #000000
0 1;
#X obj 319 15 declare -lib Gem;
#X obj 163 217 gemhead;
#X obj 163 378 text2d;
#X floatatom 203 348 5 0 0 0 - - - 0;
#X msg 81 283 alias \$1;
#X obj 81 247 tgl 15 0 empty empty empty 17 7 0 10 #fcfcfc #000000
#000000 0 1;
#X obj 391 68 gemkeyboard;
#X floatatom 326 99 5 0 0 0 - - - 0;
#X obj 391 115 select 263 262;
#X msg 391 154 -1;
#X msg 438 155 1;
#X obj 349 200 trigger b b f;
#X obj 470 200 trigger b b f;
#X obj 310 257 float;
#X obj 403 256 +;
#X msg 247 157 0;
#X obj 247 200 trigger b f;
#X msg 310 291 text \$1;
#X connect 1 0 0 0;
#X connect 2 0 0 0;
#X connect 3 0 0 0;
#X connect 5 0 6 0;
#X connect 7 0 6 1;
#X connect 8 0 6 0;
#X connect 9 0 8 0;
#X connect 10 0 11 0;
#X connect 10 0 12 0;
#X connect 12 0 13 0;
#X connect 12 1 14 0;
#X connect 13 0 15 0;
#X connect 14 0 16 0;
#X connect 15 0 17 0;
#X connect 15 1 18 0;
#X connect 15 2 18 1;
#X connect 16 0 17 0;
#X connect 16 2 18 1;
#X connect 17 0 18 0;
#X connect 17 0 21 0;
#X connect 18 0 17 1;
#X connect 19 0 20 0;
#X connect 20 0 17 0;
#X connect 20 1 17 1;
#X connect 21 0 6 0;
