#N canvas 654 175 786 630 12;
#X obj 29 381 gemwin;
#X obj 213 25 tgl 15 0 empty empty empty 17 7 0 10 #fcfcfc #000000
#000000 0 1;
#X msg 16 307 create;
#X msg 75 305 destroy;
#X msg 68 275 buffer 1;
#X msg 147 274 reset;
#X obj 70 246 trigger b b;
#X obj 70 225 bng 15 250 50 0 empty empty empty 17 7 0 10 #fcfcfc #000000
#000000;
#X obj 8 206 r clear;
#X obj 213 51 trigger f f;
#X obj 288 117 metro 5;
#X obj 327 151 r draw;
#X obj 288 190 spigot;
#X obj 289 242 gemhead;
#X obj 289 346 color;
#X obj 289 387 translateXYZ;
#X obj 289 439 circle 0.05;
#X msg 321 316 1 1 0;
#X obj 321 279 loadbang;
#X obj 428 301 spigot;
#X obj 503 301 spigot;
#X obj 467 260 r draw;
#X obj 543 259 r draw;
#X obj 439 47 gemmouse 1 1;
#X obj 431 146 * 8;
#X obj 431 170 - 4;
#X obj 488 144 * -8;
#X obj 488 168 + 4;
#X obj 505 85 trigger b b f;
#X obj 634 85 select 1;
#X obj 635 112 s clear;
#X connect 1 0 9 0;
#X connect 2 0 0 0;
#X connect 3 0 0 0;
#X connect 4 0 0 0;
#X connect 5 0 0 0;
#X connect 6 0 4 0;
#X connect 6 1 5 0;
#X connect 7 0 6 0;
#X connect 8 0 0 0;
#X connect 9 0 0 0;
#X connect 9 1 10 0;
#X connect 10 0 12 0;
#X connect 11 0 12 1;
#X connect 12 0 13 0;
#X connect 13 0 14 0;
#X connect 14 0 15 0;
#X connect 15 0 16 0;
#X connect 17 0 14 1;
#X connect 18 0 17 0;
#X connect 19 0 15 1;
#X connect 20 0 15 2;
#X connect 21 0 19 1;
#X connect 22 0 20 1;
#X connect 23 0 24 0;
#X connect 23 1 26 0;
#X connect 23 2 28 0;
#X connect 23 4 29 0;
#X connect 24 0 25 0;
#X connect 25 0 19 0;
#X connect 26 0 27 0;
#X connect 27 0 20 0;
#X connect 28 0 24 0;
#X connect 28 1 26 0;
#X connect 29 0 30 0;
