#N canvas 515 219 790 512 12;
#X declare -lib Gem;
#X obj 71 110 gemwin;
#X obj 36 81 tgl 15 0 empty empty empty 17 7 0 10 #fcfcfc #000000 #000000
0 1;
#X msg 77 66 create;
#X msg 143 67 destroy;
#X obj 321 17 declare -lib Gem;
#X floatatom 347 122 5 0 0 0 - - - 0;
#X floatatom 394 122 5 0 0 0 - - - 0;
#X obj 446 120 tgl 15 0 empty empty empty 17 7 0 10 #fcfcfc #000000
#000000 0 1;
#X obj 476 120 tgl 15 0 empty empty empty 17 7 0 10 #fcfcfc #000000
#000000 0 1;
#X obj 505 120 tgl 15 0 empty empty empty 17 7 0 10 #fcfcfc #000000
#000000 0 1;
#X obj 372 69 gemmouse 1 1;
#X obj 214 112 gemhead;
#X obj 212 246 color;
#X obj 269 279 pack f f;
#X floatatom 251 365 5 0 0 0 - - - 0;
#X msg 269 322 text \$1 : \$2;
#X msg 244 203 1 1 0;
#X obj 212 394 text3d;
#X obj 213 169 rotateXYZ;
#X floatatom 234 139 5 0 0 0 - - - 0;
#X floatatom 277 141 5 0 0 0 - - - 0;
#X connect 1 0 0 0;
#X connect 2 0 0 0;
#X connect 3 0 0 0;
#X connect 5 0 13 0;
#X connect 6 0 13 1;
#X connect 10 0 5 0;
#X connect 10 1 6 0;
#X connect 10 2 7 0;
#X connect 10 3 8 0;
#X connect 10 4 9 0;
#X connect 11 0 18 0;
#X connect 12 0 17 0;
#X connect 13 0 15 0;
#X connect 14 0 17 1;
#X connect 15 0 17 0;
#X connect 16 0 12 1;
#X connect 18 0 12 0;
#X connect 19 0 18 1;
#X connect 20 0 18 2;
