#N canvas 222 303 803 424 12;
#X declare -lib Gem;
#X obj 71 110 gemwin;
#X obj 36 81 tgl 15 0 empty empty empty 17 7 0 10 #fcfcfc #000000 #000000
0 1;
#X msg 77 66 create;
#X msg 143 67 destroy;
#X obj 457 25 declare -lib Gem;
#X floatatom 437 213 5 0 0 0 - - - 0;
#X floatatom 488 213 5 0 0 0 - - - 0;
#X obj 568 144 tgl 15 0 empty empty empty 17 7 0 10 #fcfcfc #000000
#000000 0 1;
#X obj 597 144 tgl 15 0 empty empty empty 17 7 0 10 #fcfcfc #000000
#000000 0 1;
#X obj 462 93 gemmouse 1 1;
#X obj 214 112 gemhead;
#X obj 214 212 color;
#X obj 214 288 translateXYZ;
#X obj 214 345 square 0.2;
#X obj 437 141 * 8;
#X obj 437 176 - 4;
#X obj 488 143 * -8;
#X obj 488 178 + 4;
#X obj 545 216 select 0 1;
#X obj 545 251 send blue;
#X obj 625 252 send red;
#X msg 246 171 1 0 0;
#X msg 336 171 0 0 1;
#X obj 336 137 receive blue;
#X obj 246 137 receive red;
#X obj 545 168 select 1;
#X obj 545 194 tgl 15 0 empty empty empty 17 7 0 10 #fcfcfc #000000
#000000 0 1;
#X connect 1 0 0 0;
#X connect 2 0 0 0;
#X connect 3 0 0 0;
#X connect 5 0 12 1;
#X connect 6 0 12 2;
#X connect 9 0 14 0;
#X connect 9 1 16 0;
#X connect 9 2 25 0;
#X connect 9 3 7 0;
#X connect 9 4 8 0;
#X connect 10 0 11 0;
#X connect 11 0 12 0;
#X connect 12 0 13 0;
#X connect 14 0 15 0;
#X connect 15 0 5 0;
#X connect 16 0 17 0;
#X connect 17 0 6 0;
#X connect 18 0 19 0;
#X connect 18 1 20 0;
#X connect 21 0 11 1;
#X connect 22 0 11 1;
#X connect 23 0 22 0;
#X connect 24 0 21 0;
#X connect 25 0 26 0;
#X connect 26 0 18 0;
