#N canvas 428 180 1012 492 12;
#X declare -lib Gem;
#X obj 90 103 gemwin;
#X msg 65 45 create;
#X msg 131 45 destroy;
#X obj 29 68 tgl 15 0 empty empty empty 17 7 0 10 #fcfcfc #000000 #000000
0 1;
#X obj 17 13 declare -lib Gem;
#X obj 244 35 gemhead;
#X obj 245 260 translateXYZ;
#X obj 289 99 metro 100;
#X obj 289 67 tgl 15 0 empty empty empty 17 7 0 10 #fcfcfc #000000
#000000 0 1;
#X obj 374 101 bng 15 250 50 0 empty empty empty 17 7 0 10 #fcfcfc
#000000 #000000;
#X floatatom 422 100 5 0 0 0 - - - 0;
#X floatatom 488 101 5 0 0 0 - - - 0;
#X obj 289 152 Ball, f 8;
#X text 361 72 reset;
#X text 415 71 x velo;
#X text 479 70 y velo;
#X floatatom 289 201 5 0 0 0 - - - 0;
#X floatatom 342 201 5 0 0 0 - - - 0;
#X obj 246 355 circle 0.5;
#X obj 575 39 gemhead;
#X obj 576 264 translateXYZ;
#X obj 620 103 metro 100;
#X obj 620 71 tgl 15 0 empty empty empty 17 7 0 10 #fcfcfc #000000
#000000 0 1;
#X obj 705 105 bng 15 250 50 0 empty empty empty 17 7 0 10 #fcfcfc
#000000 #000000;
#X floatatom 753 104 5 0 0 0 - - - 0;
#X floatatom 819 105 5 0 0 0 - - - 0;
#X obj 620 156 Ball, f 8;
#X text 692 76 reset;
#X text 746 75 x velo;
#X text 810 74 y velo;
#X floatatom 620 205 5 0 0 0 - - - 0;
#X floatatom 673 205 5 0 0 0 - - - 0;
#X obj 577 359 circle 0.5;
#X obj 245 299 color 1 0 0;
#X obj 576 304 color 1 1 0;
#X connect 1 0 0 0;
#X connect 2 0 0 0;
#X connect 3 0 0 0;
#X connect 5 0 6 0;
#X connect 6 0 33 0;
#X connect 7 0 12 0;
#X connect 8 0 7 0;
#X connect 9 0 12 1;
#X connect 10 0 12 2;
#X connect 11 0 12 3;
#X connect 12 0 16 0;
#X connect 12 1 17 0;
#X connect 16 0 6 1;
#X connect 17 0 6 2;
#X connect 19 0 20 0;
#X connect 20 0 34 0;
#X connect 21 0 26 0;
#X connect 22 0 21 0;
#X connect 23 0 26 1;
#X connect 24 0 26 2;
#X connect 25 0 26 3;
#X connect 26 0 30 0;
#X connect 26 1 31 0;
#X connect 30 0 20 1;
#X connect 31 0 20 2;
#X connect 33 0 18 0;
#X connect 34 0 32 0;
