#N canvas 46 91 902 562 12;
#X declare -lib Gem;
#X obj 90 103 gemwin;
#X msg 65 45 create;
#X msg 131 45 destroy;
#X obj 29 68 tgl 15 0 empty empty empty 17 7 0 10 #fcfcfc #000000 #000000
0 1;
#X obj 17 13 declare -lib Gem;
#X obj 54 182 gemhead;
#X obj 55 425 translateXYZ;
#X obj 99 236 metro 100;
#X obj 99 204 tgl 15 0 empty empty empty 17 7 0 10 #fcfcfc #000000
#000000 0 1;
#X obj 184 238 bng 15 250 50 0 empty empty empty 17 7 0 10 #fcfcfc
#000000 #000000;
#X obj 99 289 Ball, f 8;
#X text 171 209 reset;
#X text 218 159 x velo;
#X text 411 158 y velo;
#X obj 56 520 circle 0.5;
#X obj 55 464 color 1 1 1;
#X obj 800 162 gemkeyboard;
#X floatatom 821 198 5 0 0 0 - - - 0;
#X obj 773 226 select 263 262;
#X obj 773 299 t b b f;
#X obj 773 346 float;
#X obj 830 346 +;
#X obj 669 441 translateXYZ 0 -3.8 0;
#X obj 668 273 gemhead;
#X obj 668 334 color 0 1 1;
#X obj 669 500 rectangle 1 0.2;
#X msg 773 262 -0.5;
#X msg 820 262 0.5;
#X obj 99 323 s x1;
#X obj 152 323 s y1;
#X obj 99 353 r x1;
#X obj 154 355 r y1;
#X obj 502 34 r x1;
#X obj 601 35 r y1;
#X obj 546 34 r x2;
#X obj 526 85 -;
#X obj 526 109 abs;
#X obj 602 84 trigger b f;
#X obj 773 370 s x2;
#X obj 716 377 r x2;
#X floatatom 716 406 5 0 0 0 - - - 0;
#X floatatom 97 393 5 0 0 0 - - - 0;
#X floatatom 156 391 5 0 0 0 - - - 0;
#X obj 554 162 expr $f1<=1 && $f2<=-3.1;
#X obj 344 37 loadbang;
#X obj 276 74 random 100;
#X obj 369 74 random 100;
#X obj 276 108 - 50;
#X obj 276 132 / 200;
#X floatatom 276 156 5 0 0 0 - - - 0;
#X obj 369 110 - 50;
#X obj 369 134 / 200;
#X floatatom 369 158 5 0 0 0 - - - 0;
#X obj 554 218 select 1;
#X floatatom 463 186 5 0 0 0 - - - 0;
#X obj 360 413 float;
#X obj 417 413 + 1;
#X obj 360 366 t b f;
#X msg 360 329 0;
#X obj 478 358 gemhead;
#X obj 478 415 translateXYZ;
#X msg 360 453 text \$1;
#X obj 479 487 text2d;
#X floatatom 519 451 5 0 0 0 - - - 0;
#X floatatom 554 369 5 0 0 0 - - - 0;
#X msg 554 341 3;
#X obj 553 264 t b b;
#X connect 1 0 0 0;
#X connect 2 0 0 0;
#X connect 3 0 0 0;
#X connect 5 0 6 0;
#X connect 6 0 15 0;
#X connect 7 0 10 0;
#X connect 8 0 7 0;
#X connect 9 0 10 1;
#X connect 10 0 28 0;
#X connect 10 1 29 0;
#X connect 15 0 14 0;
#X connect 16 0 17 0;
#X connect 16 0 18 0;
#X connect 18 0 26 0;
#X connect 18 1 27 0;
#X connect 19 0 20 0;
#X connect 19 1 21 0;
#X connect 19 2 21 1;
#X connect 20 0 21 0;
#X connect 20 0 38 0;
#X connect 21 0 20 1;
#X connect 22 0 25 0;
#X connect 23 0 24 0;
#X connect 24 0 22 0;
#X connect 26 0 19 0;
#X connect 27 0 19 0;
#X connect 30 0 41 0;
#X connect 31 0 42 0;
#X connect 32 0 35 0;
#X connect 33 0 37 0;
#X connect 34 0 35 1;
#X connect 35 0 36 0;
#X connect 36 0 43 0;
#X connect 37 0 43 0;
#X connect 37 1 43 1;
#X connect 39 0 40 0;
#X connect 40 0 22 1;
#X connect 41 0 6 1;
#X connect 42 0 6 2;
#X connect 43 0 53 0;
#X connect 43 0 54 0;
#X connect 44 0 45 0;
#X connect 44 0 46 0;
#X connect 45 0 47 0;
#X connect 46 0 50 0;
#X connect 47 0 48 0;
#X connect 48 0 49 0;
#X connect 49 0 10 2;
#X connect 50 0 51 0;
#X connect 51 0 52 0;
#X connect 52 0 10 3;
#X connect 53 0 66 0;
#X connect 55 0 56 0;
#X connect 55 0 61 0;
#X connect 56 0 55 1;
#X connect 57 0 55 0;
#X connect 57 1 55 1;
#X connect 58 0 57 0;
#X connect 59 0 60 0;
#X connect 60 0 62 0;
#X connect 61 0 62 0;
#X connect 63 0 62 1;
#X connect 64 0 60 1;
#X connect 64 0 60 2;
#X connect 65 0 64 0;
#X connect 66 0 10 5;
#X connect 66 1 55 0;
