#N canvas 2 25 1440 847 12;
#X declare -lib Gem;
#X obj 57 111 gemwin;
#X msg 48 62 create;
#X msg 113 63 destroy;
#X obj 20 80 tgl 15 0 empty empty empty 17 7 0 10 #fcfcfc #000000 #000000
0 1;
#X obj 10 14 declare -lib Gem;
#X obj 49 238 gemhead;
#X obj 50 350 translateXYZ;
#X obj 51 400 circle 0.5;
#X floatatom 76 321 5 0 0 0 - - - 0;
#X floatatom 120 321 5 0 0 0 - - - 0;
#X obj 231 262 float;
#X obj 325 258 +;
#X msg 231 167 0;
#X obj 231 209 t b f;
#X obj 76 285 r x1;
#X obj 52 459 tgl 15 0 empty empty empty 17 7 0 10 #fcfcfc #000000
#000000 0 1;
#X obj 52 571 s x3;
#X obj 175 205 r x3;
#X floatatom 280 292 5 0 0 0 - - - 0;
#X obj 200 239 bng 15 250 50 0 empty empty empty 17 7 0 10 #fcfcfc
#000000 #000000;
#X obj 380 216 float;
#X obj 407 171 t b f;
#X obj 443 217 * -1;
#X floatatom 407 138 5 0 0 0 - - - 0;
#X obj 302 163 t b b b;
#X obj 302 131 r x2;
#X obj 286 196 s x3;
#X obj 231 320 t f f;
#X obj 231 374 s x1;
#X obj 302 407 select 1;
#X obj 302 438 s x2;
#X floatatom 382 264 5 0 0 0 - - - 0;
#X obj 302 373 expr $f1> 3.5 || $f1<-3.5;
#X obj 617 261 float;
#X obj 711 257 +;
#X msg 617 166 0;
#X obj 617 208 t b f;
#X floatatom 666 291 5 0 0 0 - - - 0;
#X obj 586 238 bng 15 250 50 0 empty empty empty 17 7 0 10 #fcfcfc
#000000 #000000;
#X obj 766 215 float;
#X obj 793 170 t b f;
#X obj 829 216 * -1;
#X floatatom 793 137 5 0 0 0 - - - 0;
#X obj 688 162 t b b b;
#X obj 617 319 t f f;
#X obj 688 406 select 1;
#X floatatom 768 263 5 0 0 0 - - - 0;
#X obj 688 372 expr $f1> 3.5 || $f1<-3.5;
#X obj 688 130 r y2;
#X obj 617 373 s y1;
#X obj 561 204 r y3;
#X obj 688 437 s y2;
#X obj 672 195 s y3;
#X obj 52 535 trigger b b;
#X obj 126 573 s y3;
#X obj 120 285 r y1;
#X obj 52 503 metro 300;
#X connect 1 0 0 0;
#X connect 2 0 0 0;
#X connect 3 0 0 0;
#X connect 5 0 6 0;
#X connect 6 0 7 0;
#X connect 8 0 6 1;
#X connect 9 0 6 2;
#X connect 10 0 11 0;
#X connect 10 0 18 0;
#X connect 10 0 27 0;
#X connect 11 0 10 1;
#X connect 12 0 13 0;
#X connect 13 0 10 0;
#X connect 13 1 10 1;
#X connect 14 0 8 0;
#X connect 15 0 56 0;
#X connect 17 0 19 0;
#X connect 19 0 10 0;
#X connect 20 0 22 0;
#X connect 20 0 11 1;
#X connect 20 0 31 0;
#X connect 21 0 20 0;
#X connect 21 1 20 1;
#X connect 22 0 20 1;
#X connect 23 0 21 0;
#X connect 24 0 26 0;
#X connect 24 1 11 0;
#X connect 24 2 20 0;
#X connect 25 0 24 0;
#X connect 27 0 28 0;
#X connect 27 1 32 0;
#X connect 29 0 30 0;
#X connect 32 0 29 0;
#X connect 33 0 34 0;
#X connect 33 0 37 0;
#X connect 33 0 44 0;
#X connect 34 0 33 1;
#X connect 35 0 36 0;
#X connect 36 0 33 0;
#X connect 36 1 33 1;
#X connect 38 0 33 0;
#X connect 39 0 41 0;
#X connect 39 0 34 1;
#X connect 39 0 46 0;
#X connect 40 0 39 0;
#X connect 40 1 39 1;
#X connect 41 0 39 1;
#X connect 42 0 40 0;
#X connect 43 0 52 0;
#X connect 43 1 34 0;
#X connect 43 2 39 0;
#X connect 44 0 49 0;
#X connect 44 1 47 0;
#X connect 45 0 51 0;
#X connect 47 0 45 0;
#X connect 48 0 43 0;
#X connect 50 0 38 0;
#X connect 53 0 16 0;
#X connect 53 1 54 0;
#X connect 55 0 9 0;
#X connect 56 0 53 0;
