#N canvas 351 234 450 300 12;
#X obj 61 54 bng 15 250 50 0 empty empty empty 17 7 0 10 #fcfcfc #000000
#000000;
#X obj 181 55 bng 15 250 50 0 empty empty empty 17 7 0 10 #fcfcfc #000000
#000000;
#X obj 61 99 Abstraction;
#X obj 181 100 Abstraction;
#X floatatom 61 146 5 0 0 0 - - - 0;
#X floatatom 181 148 5 0 0 0 - - - 0;
#X obj 309 57 bng 15 250 50 0 empty empty empty 17 7 0 10 #fcfcfc #000000
#000000;
#X obj 308 101 float \$0;
#X floatatom 308 144 5 0 0 0 - - - 0;
#X connect 0 0 2 0;
#X connect 1 0 3 0;
#X connect 2 0 4 0;
#X connect 3 0 5 0;
#X connect 6 0 7 0;
#X connect 7 0 8 0;
